<?xml version="1.0" encoding="UTF-8" standalone="no"?>
<svg
   height="864.0"
   preserveAspectRatio="xMidYMid meet"
   version="1.0"
   viewBox="-0.7 -0.0 864.8 864.0"
   width="864.8"
   zoomAndPan="magnify"
   class="TridactylThemeDark"
   id="svg350"
   xmlns="http://www.w3.org/2000/svg"
   xmlns:svg="http://www.w3.org/2000/svg"
   xmlns:xhtml="http://www.w3.org/1999/xhtml">
  <defs
     id="defs354" />
  <path
     d="M0 0H864V864H0z"
     fill="none"
     id="path2" />
  <g
     fill="#FFF"
     id="change1_1">
    <path
       d="M212.1,646.5c-1.2,4.4-1.2,8.6-1.2,12.8c0,0.9,0.7,1.6,1.5,1.6c1.3,0,2.6-0.2,3.9-0.3 c0.6-0.1,1.2-0.7,1.2-1.4c-0.1-1.9-0.2-3.9-0.3-5.8c-0.1-1.1-0.4-2.3-0.4-3.4c0-1.2,0.4-2.4,0.6-3.7 C215.7,645.8,214.1,646,212.1,646.5z"
       fill="inherit"
       id="path4" />
    <path
       d="M243,649.9c-0.1-0.6-0.2-1.3-0.3-1.9c-0.2-0.9-1.2-1.6-2.2-1.5c-0.5,0-1,0.1-1.4,0.2 c-0.8,0.2-1.4,0.9-1.4,1.7c-0.1,2.6-0.1,5.2-0.1,7.8c0,0.8,0.1,1.6,0.2,2.4c0.1,0.5,0.8,1.2,1.3,1.3c0.8,0.1,1.6,0.2,2.4,0.1 c1.9,0,2.4-0.6,2.2-2.3c-0.2-1.3-0.3-2.6-0.5-3.9c0,0,0.1,0,0.1,0C243.2,652.5,243.1,651.2,243,649.9z"
       fill="inherit"
       id="path6" />
    <path
       d="M189.7,662.2c0.9-0.1,1.5-0.6,1.9-1.4c0.3-0.6,0.6-1.2,0.6-1.8c0.5-3.7,0.4-7.4-0.1-11.1 c-0.1-0.7-0.6-1.2-1.2-1.4c-1.4-0.4-2.9-0.4-4.3,0.1c-0.8,0.3-1.4,0.8-1.5,1.7c-0.1,1.6,0,3.2,0,5.7c0.1,1.1,0.1,3,0.3,5 c0,0.6,0.2,1.3,0.4,1.9c0.1,0.3,0.4,0.6,0.6,0.7C187.4,662.1,188.6,662.3,189.7,662.2z"
       fill="inherit"
       id="path8" />
    <path
       d="M238.9,607.6c-1.1,0.3-2.2,0.5-3.3,0.9c-0.6,0.2-1.1,0.7-1.3,1.3c-0.1,0.6-0.2,1.3-0.3,1.9 c-1.1,7.5-1.2,7.5,6.5,6.1c1.7-0.3,2-1,2.2-2.2c0.1-0.8,0.1-1.6,0.2-2.6c0-0.8,0-1.8-0.2-2.7C242.2,607.4,241.7,606.8,238.9,607.6z"
       fill="inherit"
       id="path10" />
    <path
       d="M262.8,657.9c0,0.5,0.9,1.2,1.4,1.2c1.3-0.1,2.6-0.2,3.9-0.3c1-0.1,1.5-0.7,1.5-1.6 c-0.1-2.9-0.3-5.9-0.4-8.8c0-0.2,0-0.4-0.1-0.5c-0.3-0.3-0.6-0.8-1.1-0.9c-0.4-0.2-1-0.1-1.4,0c-3.7,0.3-4,0.6-3.9,4 c0,0.7,0.1,1.3,0.2,3.1C262.8,654.6,262.8,656.3,262.8,657.9z"
       fill="inherit"
       id="path12" />
    <path
       d="M290.2,657.1c0,0.3,0.1,0.7,0.3,0.9c0.2,0.2,0.6,0.4,0.8,0.3c0.8-0.2,1.4-0.7,1.5-1.6 c0.5-2.7,0.4-5.4-0.2-8.1c-0.1-0.3-0.2-0.6-0.4-0.9c-0.1-0.1-0.2-0.2-0.3-0.3c-0.1-0.1-0.3-0.2-0.4-0.2c-0.3,0.1-0.7,0.2-0.8,0.4 c-0.8,1.8-0.4,3.8-0.5,5.7C290.2,654.6,290.1,655.9,290.2,657.1z"
       fill="inherit"
       id="path14" />
    <path
       d="M217.9,693c0.3-1.1,0.5-2.2,0.2-3.4c-0.1-0.3-0.3-0.6-0.6-0.7c-2-0.7-4.1-0.8-6.2-0.5 c-0.7,0.1-1.1,0.6-1.4,1.2c-0.7,1.3-0.7,2.8-0.7,4.3c0,0.6,0.6,1.3,1.2,1.3c1,0,1.9,0,2.9,0c0,0,0,0.1,0,0.1c0.5,0,1,0,1.5,0 C216.7,695.4,217.5,694.7,217.9,693z"
       fill="inherit"
       id="path16" />
    <path
       d="M242.4,726.5c0-0.6-0.6-1.1-1.3-1.3c-1.3-0.3-2.3,0.4-2.4,1.6c-0.1,2.4-0.2,4.9-0.3,7.3 c0,0.5,0.1,1,0.2,1.4c0.1,0.8,0.7,1.2,1.8,1.3c0.9,0.1,1.8-0.5,1.8-1.2c0.2-1.6,0.3-3.2,0.5-4.8c-0.1,0-0.2,0-0.2,0 C242.4,729.4,242.4,728,242.4,726.5z"
       fill="inherit"
       id="path18" />
    <path
       d="M264,729.3c-2.7,0-3.7,0.8-4.1,3.1c-0.2,1.4-0.5,2.9-0.7,4.3c-0.1,0.5,0,1,0.1,1.4c0.1,0.3,0.4,0.7,0.6,0.7 c1.5,0.1,2.9,0,4.4,0c0.2-0.4,0.5-0.9,0.5-1.3c0.1-2.3,0.1-4.5,0.1-6.8c0-0.3-0.1-0.7-0.3-0.9C264.6,729.5,264.3,729.3,264,729.3z"
       fill="inherit"
       id="path20" />
    <path
       d="M212.3,617.3c1.3,0.1,2.6,0.3,3.9,0.5c1.9,0.3,2.6,0.5,2.6-2.2c0-0.8,0-1.6,0-2.4c0,0,0,0,0.1,0 c0-1.3,0-2.6,0-3.9c0-0.2-0.4-0.6-0.7-0.6c-1.6,0-3.3,0.1-4.9,0.1c-2.1,0-2.6,0.6-3,2.5c-0.2,1.1-0.3,2.3-0.4,3.4 C209.7,616.4,210.1,617.2,212.3,617.3z"
       fill="inherit"
       id="path22" />
    <path
       d="M266.2,608.9c-1.7,0.4-3.6,0.3-5.3,1.4c-0.9,1.5-1.2,3.3-1.3,5.1c-0.1,0.9,0.5,1.5,1.5,1.5 c1.6,0,3.3,0,4.9-0.1c2.2-0.1,2.6-0.5,3.2-2.9c0.2-0.6,0.2-1.3,0.2-1.9C269.6,608.6,269,608.1,266.2,608.9z"
       fill="inherit"
       id="path24" />
    <path
       d="M193.2,614.4c-0.2-1.5-0.3-3.1-0.6-4.7c-0.1-0.9-0.8-1.4-1.6-1.5c-2.3,0-3,0.5-3.5,2.5 c-0.3,1.3-0.5,2.5-0.7,3.8c-1,4.6,0,4.7,4.1,4c0.3-0.1,0.6-0.1,0.9-0.2c0.6-0.2,1.1-0.7,1.2-1.4 C193.2,616.1,193.2,615.3,193.2,614.4z"
       fill="inherit"
       id="path26" />
    <path
       d="M265.8,687c-0.3,0-0.6,0-1-0.1c-0.3,0-0.6,0-1,0c-1.1,0-1.9,0.5-2.2,1.5c-0.8,2.1-1.3,4.3-1.4,6.6 c0,0.5,0.7,1.4,1.1,1.4c1.9,0.2,3.8,0.4,5.8,0.6c0.9,0.1,2-0.7,2.2-1.6c0.3-1.4,0.6-2.9,0.6-4.3C269.8,688,268.9,687.2,265.8,687z"
       fill="inherit"
       id="path28" />
    <path
       d="M288.9,729c-1.1,0.1-2.2,0.2-3.3,0.4c-0.3,0-0.6,0.4-0.7,0.6c-0.4,2.4-0.8,4.8-0.5,7.2c0,0.4,0.6,0.9,1,0.8 c1-0.1,1.9-0.2,2.9-0.3c0.6-0.1,1.2-0.6,1.3-1.3c0.1-1.1,0.2-2.3,0.5-4.1c0-0.2,0-1.2,0-2.2C290.1,729.6,289.5,728.9,288.9,729z"
       fill="inherit"
       id="path30" />
    <path
       d="M245,696.1c0.1-1.1,0.2-2.3,0.5-4.1c0-0.2,0-1.2,0-2.2c0-0.7-0.6-1.4-1.2-1.3c-1.1,0.1-2.2,0.2-3.3,0.4 c-0.3,0-0.6,0.4-0.7,0.6c-0.4,2.4-0.8,4.8-0.5,7.2c0,0.4,0.6,0.9,1,0.8c1-0.1,1.9-0.2,2.9-0.3C244.4,697.3,245,696.7,245,696.1z"
       fill="inherit"
       id="path32" />
    <path
       d="M217.5,724.9c-0.1-0.3-0.4-0.5-0.7-0.6c-1.2-0.6-2.6,0.1-2.7,1.2c-0.1,1.3-0.2,2.6-0.2,4 c0.1,1.2,0.1,2.4,0.3,3.7c0,0.4,0.3,0.5,0.7,0.6c1.5,0.2,2.3-0.2,2.4-1.6c0.2-1.9,0.3-3.9,0.4-5.8 C217.8,725.8,217.7,725.3,217.5,724.9z"
       fill="inherit"
       id="path34" />
    <path
       d="M294.8,689.4c0.2-1.4-0.5-2.1-1.9-2.1c-1,0-1.9,0.2-2.9,0.3c-0.6,0.1-1.2,0.8-1.2,1.4 c-0.1,1.1-0.2,2.3-0.3,3.4c-0.1,1.3,0.8,2.2,2.1,2c1.1-0.1,2.2-0.4,3.6-0.7C294.4,692,294.6,690.7,294.8,689.4z"
       fill="inherit"
       id="path36" />
    <path
       d="M292.4,614.9c0.3-0.7,0.4-1.6,0.6-2.4c-0.2-1.1-0.3-2.3-0.6-3.4c-0.1-0.4-0.6-0.9-1-0.9 c-0.9-0.1-1.9,0-2.9,0c-0.3,0-0.6,0.3-0.7,0.6c-0.8,2-1,4.1-0.8,6.2c0,0.3,0.3,0.6,0.6,0.7c1.2,0.7,2.5,0.6,3.8,0.1 C291.8,615.7,292.2,615.3,292.4,614.9z"
       fill="inherit"
       id="path38" />
    <path
       d="M185.6,734.7c0.8,0.1,1.6,0.1,2.4,0.1c0.7,0,1.3-0.6,1.3-1.2c0.1-1.3,0.2-2.6,0.3-3.3c0-1.7,0-2.8,0-3.9 c0-0.6-0.6-1.3-1.2-1.3c-0.8,0-1.6,0-2.4,0.1c-0.6,0.1-1.2,0.7-1.2,1.3c0,2.4,0,4.8,0,7.3c0,0.1,0.1,0.3,0.2,0.4 C185.1,734.3,185.4,734.7,185.6,734.7z"
       fill="inherit"
       id="path40" />
    <path
       d="M190.9,693c0.2,0,0.3,0,0.5,0c0.8-0.1,1.6-0.9,1.5-1.6c-0.2-1.1-0.4-2.2-0.7-3.3c-0.1-0.3-0.4-0.5-0.6-0.7 c-1.6-0.8-3.5-0.2-4,1.4c-0.3,0.9-0.5,1.9-0.7,2.8c-0.1,0.6,0.4,1.3,1.1,1.3c0.5,0,1,0.1,0.7,0.1 C189.9,693.1,190.4,693.1,190.9,693z"
       fill="inherit"
       id="path42" />
    <path
       d="M611.9,356.4c-0.9,2.3-1.4,4.7-1.8,7.1c-0.6,4.3-1.3,8.6-1.9,12.9c0,0.3,0,0.7,0.1,1.1 c0.4,0.2,0.9,0.5,1.4,0.6c1.6,0.1,3.1,0.1,4.7,0c5.4-0.4,10.7-1.3,16-2.3c0.3-0.1,0.7-0.1,1-0.2c1.6-0.5,2.8-1.5,3-3.3 c0.2-2.2,0.7-4.5,0.5-6.8c-0.4-4.5-1-9-2.5-13.3c-0.5-1.3-0.8-2.7-1.3-4c-0.1-0.3-1-0.8-1.3-0.6c-3.5,2.1-7.4,3.1-11.2,4.2 c-1.5,0.4-2.9,1.2-4.3,1.9C613.1,354.2,612.4,355.1,611.9,356.4z"
       fill="inherit"
       id="path44" />
    <path
       d="M729.7,309.6c-0.1-0.8-1-1.6-1.8-1.7c-4.5-0.6-9.1-0.6-13.6,0.1c-2.7,0.4-5,1.6-7.2,3.1 c-1.4,0.9-2.3,2.2-2.4,3.9c-0.2,1.7-0.3,3.5-0.4,5.4c-0.1,5.6,1,11.3,2.4,16.9c0,0.2,0.2,0.3,0.2,0.5c0.1,0.4,1,0.7,1.3,0.4 c1.8-1.1,3.5-2.3,5.3-3.4c3.3-2,6.6-4,9.9-6c2-1.2,3.7-2.7,5.1-4.5c1.1-1.4,1.8-3,1.8-4.8C730.4,316.2,730.2,312.9,729.7,309.6z"
       fill="inherit"
       id="path46" />
    <path
       d="M594.7,109.5c-0.1,5.6,1.3,11.1,1.4,16.7c0,0.8,1.3,1.5,2,1.1c1.2-0.7,2.4-1.4,3.5-2.3 c5.2-3.8,10-8.3,15.7-11.4c0.2-0.1,0.3-0.6,0.5-1c-0.9-1.3-1.8-2.5-2.7-3.8c-1.2-1.7-2.8-3.1-4.4-4.5c-0.7-0.6-1.6-0.8-2.5-0.4 c-3.9,1.6-7.9,2.8-12,3.7C595.2,107.8,594.7,108.6,594.7,109.5z"
       fill="inherit"
       id="path48" />
    <path
       d="M460.5,162.9c-1.8,2.2-3.1,4.7-4.1,7.3c-1.8,4.5-1.7,4.9,0.8,9.3c0.2,0.3,0.3,0.6,0.6,0.9 c0.6,0.7,1.3,1.2,2.2,1.3c0.7,0.1,1.4,0.1,2.7,0.2c1.7,0.4,3.5-0.6,5.2-2c2-1.6,2.7-3.7,2.2-6.1c-0.9-4.6-3.3-8.4-7.3-11.1 C462.1,162.1,461.1,162.2,460.5,162.9z"
       fill="inherit"
       id="path50" />
    <path
       d="M604.3,226.1c0,1.2,0.8,1.8,2.1,1.6c0.7-0.1,1.4-0.4,2.1-0.5c1.8-0.3,2.8-1.3,3.1-3.1 c0.2-1,0.4-2.1,0.4-3.1c0-2.5,0.1-4.9-0.1-7.4c-0.2-2.5-0.7-4.8-1.7-7.1c-0.5-1.3-1.6-1.9-2.9-1.6c-1.8,0.4-2.5,1.1-2.7,2.8 c-0.1,1.4-0.2,2.8-0.2,4.2c0,1.8,0.1,3.5,0.2,5.2c-0.1,1.5-0.2,2.9-0.3,4.3C604.4,223,604.3,224.5,604.3,226.1z"
       fill="inherit"
       id="path52" />
    <path
       d="M514.2,276.8c-0.1-0.2-0.6-0.4-0.9-0.3c-0.9,0.2-1.5,0.8-2,1.6c-1.6,3.1-2.1,6.5-2.7,9.9 c0,0.2,0.4,0.5,0.7,0.6c0.7,0.3,1.4,0,1.9-0.4c2.3-2.3,3.6-5,3.5-8.9C514.7,278.8,514.5,277.8,514.2,276.8z"
       fill="inherit"
       id="path54" />
    <path
       d="M737.5,794.6c-3.6-2.5-7.1-5-10.7-7.5c-0.3-0.2-0.6-0.3-1-0.4c-0.4,0.3-0.9,0.5-1.1,1 c-0.8,1.4-1.5,2.8-2.1,4.2c-2.1,5-3.7,10.2-5.2,15.4c-0.1,0.3-0.2,0.7-0.2,1c-0.2,1.7,0.1,3.2,1.6,4.1c1.9,1.2,3.7,2.6,5.8,3.5 c4.2,1.7,8.5,3.2,13,3.7c1.4,0.2,2.7,0.5,4.1,0.6c0.4,0,1.1-0.6,1.1-0.8c-0.3-4.1,0.5-8,1.3-11.9c0.3-1.5,0.2-3.1,0.3-4.7 c0-1.3-0.5-2.3-1.3-3.3C741.4,797.6,739.6,796,737.5,794.6z"
       fill="inherit"
       id="path56" />
    <path
       d="M618,765.4c-4.5-0.6-9.1-0.6-13.6,0.1c-2.7,0.4-5,1.6-7.2,3.1c-1.4,0.9-2.3,2.2-2.4,3.9 c-0.2,1.7-0.3,3.5-0.4,5.4c-0.1,5.6,1,11.3,2.4,16.9c0,0.2,0.2,0.3,0.2,0.5c0.1,0.4,1,0.7,1.3,0.4c1.8-1.1,3.5-2.3,5.3-3.4 c3.3-2,6.6-4,9.9-6c2-1.2,3.7-2.7,5.1-4.5c1.1-1.4,1.8-3,1.8-4.8c0.1-3.3-0.1-6.6-0.6-9.9C619.7,766.4,618.8,765.5,618,765.4z"
       fill="inherit"
       id="path58" />
    <path
       d="M434.3,649.4c-0.7-0.6-1.6-0.8-2.5-0.4c-3.9,1.6-7.9,2.8-12,3.7c-0.9,0.2-1.4,1-1.4,1.9 c-0.1,5.6,1.3,11.1,1.4,16.7c0,0.8,1.3,1.5,2,1.1c1.2-0.7,2.4-1.4,3.5-2.3c5.2-3.8,10-8.3,15.7-11.4c0.2-0.1,0.3-0.6,0.5-1 c-0.9-1.3-1.8-2.5-2.7-3.8C437.4,652.2,435.9,650.8,434.3,649.4z"
       fill="inherit"
       id="path60" />
    <path
       d="M353,620.1c-0.7-0.5-1.8-0.4-2.4,0.3c-1.8,2.2-3.1,4.7-4.1,7.3c-1.8,4.5-1.7,4.9,0.8,9.3 c0.2,0.3,0.3,0.6,0.6,0.9c0.6,0.7,1.3,1.2,2.2,1.3c0.7,0.1,1.4,0.1,2.7,0.2c1.7,0.4,3.5-0.6,5.2-2c2-1.6,2.7-3.7,2.2-6.1 C359.3,626.6,357,622.8,353,620.1z"
       fill="inherit"
       id="path62" />
    <path
       d="M500.4,664.1c-0.5-1.3-1.6-1.9-2.9-1.6c-1.8,0.4-2.5,1.1-2.7,2.8c-0.1,1.4-0.2,2.8-0.2,4.2 c0,1.8,0.1,3.5,0.2,5.2c-0.1,1.5-0.2,2.9-0.3,4.3c-0.1,1.6-0.1,3.1-0.1,4.7c0,1.2,0.8,1.8,2.1,1.6c0.7-0.1,1.4-0.4,2.1-0.5 c1.8-0.3,2.8-1.3,3.1-3.1c0.2-1,0.4-2.1,0.4-3.1c0-2.5,0.1-4.9-0.1-7.4C501.9,668.8,501.4,666.4,500.4,664.1z"
       fill="inherit"
       id="path64" />
    <path
       d="M403.4,734c-0.9,0.2-1.5,0.8-2,1.6c-1.6,3.1-2.1,6.5-2.7,9.9c0,0.2,0.4,0.5,0.7,0.6c0.7,0.3,1.4,0,1.9-0.4 c2.3-2.3,3.6-5,3.5-8.9c-0.1-0.4-0.3-1.5-0.6-2.4C404.2,734.2,403.7,734,403.4,734z"
       fill="inherit"
       id="path66" />
    <path
       d="M30.3,644.4c-0.2-1.2-0.9-1.7-1.8-1.8c-5.3-0.1-10.4,1.6-15.7,1.8c-0.8,0-1.5,1.6-1.1,2.4 c0.7,1.5,1.4,2.9,2.1,4.3c3.6,6.4,7.8,12.2,10.8,19.2c0.1,0.3,0.6,0.4,0.9,0.6c1.2-1.1,2.4-2.2,3.6-3.3c1.6-1.5,2.9-3.4,4.2-5.4 c0.6-0.9,0.7-2,0.4-3C32.4,654.3,31.2,649.4,30.3,644.4z"
       fill="inherit"
       id="path68" />
    <path
       d="M93.6,673.8c0.2-0.1,0.4-0.6,0.3-0.9c-0.2-0.9-0.8-1.5-1.6-2c-3.1-1.6-6.5-2.1-9.9-2.7 c-0.2,0-0.5,0.4-0.6,0.7c-0.3,0.7,0,1.4,0.4,1.9c2.3,2.3,5,3.6,8.9,3.5C91.6,674.3,92.6,674.1,93.6,673.8z"
       fill="inherit"
       id="path70" />
    <path
       d="M107.9,729.8c-3.6-6.4-7.8-12.2-10.8-19.2c-0.1-0.3-0.6-0.4-0.9-0.6c-1.2,1.1-2.4,2.2-3.6,3.3 c-1.6,1.5-2.9,3.4-4.2,5.4c-0.6,0.9-0.7,2-0.4,3c1.5,4.8,2.6,9.7,3.5,14.8c0.2,1.2,0.9,1.7,1.8,1.8c5.3,0.1,10.4-1.6,15.7-1.8 c0.8,0,1.5-1.6,1.1-2.4C109.4,732.6,108.7,731.2,107.9,729.8z"
       fill="inherit"
       id="path72" />
    <path
       d="M89.8,596.4c2.2,1.8,4.7,3.1,7.3,4.1c4.5,1.8,4.9,1.7,9.3-0.8c0.3-0.2,0.6-0.3,0.9-0.6 c0.7-0.6,1.2-1.3,1.3-2.2c0.1-0.7,0.1-1.4,0.2-2.7c0.4-1.7-0.6-3.5-2-5.2c-1.6-2-3.7-2.7-6.1-2.2c-4.6,0.9-8.4,3.3-11.1,7.3 C89,594.8,89.2,595.9,89.8,596.4z"
       fill="inherit"
       id="path74" />
    <path
       d="M154.1,660.3c-0.3-1.8-1.3-2.8-3.1-3.1c-1-0.2-2.1-0.4-3.1-0.4c-2.5,0-4.9-0.1-7.4,0.1 c-2.5,0.2-4.8,0.7-7.1,1.7c-1.3,0.5-1.9,1.6-1.6,2.9c0.4,1.8,1.1,2.5,2.8,2.7c1.4,0.1,2.8,0.2,4.2,0.2c1.8,0,3.5-0.1,5.2-0.2 c1.5,0.1,2.9,0.2,4.3,0.3c1.6,0.1,3.1,0.1,4.7,0.1c1.2,0,1.8-0.8,1.6-2.1C154.5,661.7,154.3,661,154.1,660.3z"
       fill="inherit"
       id="path76" />
    <path
       d="M475,365.5c-0.8-1.3-2-2.4-3-3.6c-0.9-0.9-1.9-1.4-3.2-1.5c-2.5-0.2-4.9,0-7.3,0.3 c-4.3,0.6-8.6,1.2-12.9,1.9c-0.3,0-0.7,0.2-1.1,0.4c-0.1,0.5-0.3,1-0.1,1.5c0.4,1.5,0.8,3,1.4,4.5c1.9,5.1,4.3,9.9,6.8,14.7 c0.2,0.3,0.3,0.6,0.5,0.9c1,1.4,2.3,2.2,4,1.9c2.2-0.4,4.5-0.7,6.6-1.5c4.2-1.7,8.4-3.5,12-6.2c1.1-0.8,2.3-1.5,3.4-2.4 c0.3-0.2,0.4-1.2,0.2-1.4C479.3,372.3,477.2,368.9,475,365.5z"
       fill="inherit"
       id="path78" />
    <path
       d="M244.1,337.3c0,0.2,0.2,0.3,0.2,0.5c0.1,0.4,1,0.7,1.3,0.4c1.8-1.1,3.5-2.3,5.3-3.4c3.3-2,6.6-4,9.9-6 c2-1.2,3.7-2.7,5.1-4.5c1.1-1.4,1.8-3,1.8-4.8c0.1-3.3-0.1-6.6-0.6-9.9c-0.1-0.8-1-1.6-1.8-1.7c-4.5-0.6-9.1-0.6-13.6,0.1 c-2.7,0.4-5,1.6-7.2,3.1c-1.4,0.9-2.3,2.2-2.4,3.9c-0.2,1.7-0.3,3.5-0.4,5.4C241.6,326,242.7,331.7,244.1,337.3z"
       fill="inherit"
       id="path80" />
    <path
       d="M402.2,401.2c-0.9-1.3-1.8-2.5-2.7-3.8c-1.2-1.7-2.8-3.1-4.4-4.5c-0.7-0.6-1.6-0.8-2.5-0.4 c-3.9,1.6-7.9,2.8-12,3.7c-0.9,0.2-1.4,1-1.4,1.9c-0.1,5.6,1.3,11.1,1.4,16.7c0,0.8,1.3,1.5,2,1.1c1.2-0.7,2.4-1.4,3.5-2.3 c5.2-3.8,10-8.3,15.7-11.4C402,402,402.1,401.5,402.2,401.2z"
       fill="inherit"
       id="path82" />
    <path
       d="M762.1,249c-0.9-4.6-3.3-8.4-7.3-11.1c-0.7-0.5-1.8-0.4-2.4,0.3c-1.8,2.2-3.1,4.7-4.1,7.3 c-1.8,4.5-1.7,4.9,0.8,9.3c0.2,0.3,0.3,0.6,0.6,0.9c0.6,0.7,1.3,1.2,2.2,1.3c0.7,0.1,1.4,0.1,2.7,0.2c1.7,0.4,3.5-0.6,5.2-2 C761.8,253.5,762.6,251.4,762.1,249z"
       fill="inherit"
       id="path84" />
    <path
       d="M321.5,357.2c0.2-1,0.4-2.1,0.4-3.1c0-2.5,0.1-4.9-0.1-7.4c-0.2-2.5-0.7-4.8-1.7-7.1 c-0.5-1.3-1.6-1.9-2.9-1.6c-1.8,0.4-2.5,1.1-2.7,2.8c-0.1,1.4-0.2,2.8-0.2,4.2c0,1.8,0.1,3.5,0.2,5.2c-0.1,1.5-0.2,2.9-0.3,4.3 c-0.1,1.6-0.1,3.1-0.1,4.7c0,1.2,0.8,1.8,2.1,1.6c0.7-0.1,1.4-0.4,2.1-0.5C320.2,360,321.2,358.9,321.5,357.2z"
       fill="inherit"
       id="path86" />
    <path
       d="M297.8,564.9c-0.9,0.2-1.5,0.8-2,1.6c-1.6,3.1-2.1,6.5-2.7,9.9c0,0.2,0.4,0.5,0.7,0.6 c0.7,0.3,1.4,0,1.9-0.4c2.3-2.3,3.6-5,3.5-8.9c-0.1-0.4-0.3-1.5-0.6-2.4C298.6,565.1,298,564.9,297.8,564.9z"
       fill="inherit"
       id="path88" />
    <path
       d="M652,570.7c-1.7,6.4-1.8,12.5-1.8,18.7c0,1.3,1,2.3,2.2,2.3c1.9-0.1,3.8-0.2,5.6-0.4c0.9-0.1,1.8-1.1,1.7-2 c-0.1-2.8-0.2-5.7-0.4-8.5c-0.1-1.7-0.6-3.3-0.6-4.9c0.1-1.8,0.6-3.5,0.9-5.4C657.1,569.6,654.8,569.9,652,570.7z"
       fill="inherit"
       id="path90" />
    <path
       d="M694.7,590.3c2.7,0,3.4-0.9,3.1-3.3c-0.2-1.9-0.5-3.8-0.7-5.6c0.1,0,0.1,0,0.2,0c-0.1-1.9-0.2-3.8-0.4-5.7 c-0.1-0.9-0.3-1.9-0.5-2.8c-0.3-1.3-1.7-2.3-3.2-2.3c-0.7,0-1.4,0.1-2.1,0.3c-1.2,0.3-2.1,1.3-2.1,2.5c-0.1,3.8-0.2,7.6-0.2,11.4 c0,1.2,0.2,2.3,0.4,3.5c0.1,0.7,1.2,1.8,2,1.8C692.4,590.2,693.6,590.4,694.7,590.3z"
       fill="inherit"
       id="path92" />
    <path
       d="M613.6,591.8c0.1,0.4,0.5,0.8,0.9,1c1.5,0.7,3.1,1,4.8,0.8c1.3-0.2,2.2-0.9,2.7-2c0.4-0.8,0.8-1.7,0.9-2.6 c0.7-5.4,0.6-10.8-0.2-16.2c-0.1-1-0.8-1.7-1.8-2c-2.1-0.6-4.2-0.6-6.2,0.2c-1.2,0.5-2.1,1.2-2.1,2.5c-0.1,2.4,0,4.7,0,8.3 c0.1,1.6,0.2,4.4,0.4,7.2C613.1,590,613.3,590.9,613.6,591.8z"
       fill="inherit"
       id="path94" />
    <path
       d="M696.5,525.7c0.2-1.2,0.2-2.4,0.3-3.8c-0.1-1.1-0.1-2.6-0.3-4c-0.6-4.3-1.4-5.2-5.5-4 c-1.6,0.5-3.2,0.8-4.8,1.2c-0.9,0.3-1.6,1-1.9,2c-0.2,0.9-0.3,1.9-0.5,2.8c-1.6,11-1.7,10.9,9.4,9 C695.7,528.5,696.2,527.5,696.5,525.7z"
       fill="inherit"
       id="path96" />
    <path
       d="M734.9,572.8c-0.5-0.5-0.9-1.1-1.5-1.3c-0.6-0.2-1.4-0.1-2.1-0.1c-5.3,0.4-5.8,0.9-5.7,5.9 c0,0.9,0.1,1.9,0.2,4.5c0,0.8,0,3.1,0,5.5c0,0.7,1.3,1.8,2,1.8c1.9-0.1,3.8-0.3,5.7-0.5c1.4-0.2,2.2-1,2.2-2.3 c-0.2-4.3-0.4-8.5-0.6-12.8C735.1,573.3,735.1,573,734.9,572.8z"
       fill="inherit"
       id="path98" />
    <path
       d="M765.8,586.2c0,0.4,0.2,1,0.4,1.3c0.2,0.3,0.8,0.5,1.1,0.5c1.2-0.3,2-1.1,2.3-2.3c0.7-4,0.6-7.9-0.3-11.8 c-0.1-0.4-0.3-0.9-0.6-1.3c-0.1-0.2-0.3-0.3-0.5-0.4c-0.2-0.1-0.4-0.4-0.6-0.3c-0.4,0.1-1.1,0.2-1.2,0.5c-1.1,2.7-0.6,5.5-0.7,8.3 C765.8,582.5,765.7,584.4,765.8,586.2z"
       fill="inherit"
       id="path100" />
    <path
       d="M659.9,632.6c-3-1-6-1.1-9.1-0.7c-1,0.1-1.7,0.8-2.1,1.7c-1,2-1,4.1-1,6.2c0,0.9,0.9,1.9,1.7,1.9 c1.4,0,2.8,0,4.2,0c0,0.1,0,0.1,0,0.2c0.7,0,1.4,0,2.1,0c2.7,0,3.9-0.9,4.5-3.5c0.4-1.6,0.8-3.2,0.3-4.9 C660.7,633.2,660.3,632.7,659.9,632.6z"
       fill="inherit"
       id="path102" />
    <path
       d="M696.1,687.4c0-0.9-0.8-1.6-1.9-1.8c-1.9-0.4-3.4,0.5-3.5,2.4c-0.2,3.5-0.4,7.1-0.5,10.6 c0,0.7,0.2,1.4,0.3,2.1c0.2,1.2,1.1,1.8,2.6,1.9c1.3,0.1,2.6-0.7,2.7-1.8c0.3-2.3,0.5-4.7,0.7-7c-0.1,0-0.2,0-0.3,0 C696.1,691.6,696.1,689.5,696.1,687.4z"
       fill="inherit"
       id="path104" />
    <path
       d="M727.7,691.4c-3.9,0-5.4,1.1-6,4.5c-0.3,2.1-0.7,4.2-1,6.3c-0.1,0.7,0,1.4,0.2,2.1c0.1,0.4,0.6,1,0.9,1 c2.1,0.1,4.2,0,6.5,0c0.3-0.6,0.8-1.3,0.8-1.9c0.1-3.3,0.1-6.6,0.2-10c0-0.4-0.2-1-0.4-1.3C728.5,691.8,728.1,691.4,727.7,691.4z"
       fill="inherit"
       id="path106" />
    <path
       d="M660.8,515.6c-2.4,0-4.7,0.1-7.1,0.1c-3,0-3.8,0.8-4.3,3.6c-0.3,1.6-0.4,3.3-0.6,4.9 c-0.3,2.6,0.2,3.7,3.5,3.9c1.9,0.1,3.8,0.4,5.7,0.7c2.7,0.4,3.8,0.8,3.8-3.1c0-1.2,0-2.4,0-3.6c0,0,0,0,0.1,0c0-1.9,0-3.8,0-5.7 C661.8,516.1,661.1,515.6,660.8,515.6z"
       fill="inherit"
       id="path108" />
    <path
       d="M730.9,515.8c-2.5,0.6-5.2,0.4-7.7,2c-1.3,2.2-1.7,4.8-1.9,7.4c-0.1,1.3,0.7,2.1,2.2,2.1 c2.4,0,4.8,0,7.1-0.1c3.2-0.1,3.8-0.7,4.7-4.2c0.2-0.9,0.3-1.9,0.3-2.8C735.7,515.4,734.9,514.8,730.9,515.8z"
       fill="inherit"
       id="path110" />
    <path
       d="M621.2,514.9c-3.4,0-4.4,0.7-5.1,3.6c-0.4,1.8-0.7,3.7-1.1,5.5c-1.5,6.7,0,6.8,6,5.9 c0.5-0.1,0.9-0.2,1.4-0.4c0.9-0.3,1.6-1,1.8-2c0.2-1.1,0.2-2.3,0.3-3.6c-0.3-2.2-0.5-4.5-0.8-6.9 C623.4,515.8,622.4,514.9,621.2,514.9z"
       fill="inherit"
       id="path112" />
    <path
       d="M735.3,642c0.4-2.1,0.9-4.2,0.8-6.3c-0.1-4.5-1.4-5.7-5.9-6c-0.5,0-0.9-0.1-1.4-0.1c-0.5,0-0.9,0-1.4,0 c-1.6,0-2.8,0.7-3.3,2.2c-1.1,3.1-1.9,6.3-2,9.6c0,0.7,1,2,1.6,2.1c2.8,0.3,5.6,0.6,8.4,0.9C733.6,644.5,735.1,643.3,735.3,642z"
       fill="inherit"
       id="path114" />
    <path
       d="M764,691c-1.6,0.1-3.3,0.3-4.9,0.6c-0.4,0.1-0.9,0.6-1,0.9c-0.5,3.5-1.1,7-0.7,10.6 c0.1,0.5,0.9,1.3,1.5,1.2c1.4-0.1,2.8-0.2,4.2-0.4c0.9-0.1,1.8-0.9,1.9-1.8c0.2-1.6,0.4-3.3,0.7-6c0-0.3,0-1.8,0-3.2 C765.7,692,764.8,690.9,764,691z"
       fill="inherit"
       id="path116" />
    <path
       d="M698.9,631.9c-1.6,0.1-3.3,0.3-4.9,0.6c-0.4,0.1-0.9,0.6-1,0.9c-0.5,3.5-1.1,7-0.7,10.6 c0.1,0.5,0.9,1.3,1.5,1.2c1.4-0.1,2.8-0.2,4.2-0.4c0.9-0.1,1.8-0.9,1.9-1.8c0.2-1.6,0.4-3.3,0.7-6c0-0.3,0-1.8,0-3.2 C700.6,632.9,699.7,631.9,698.9,631.9z"
       fill="inherit"
       id="path118" />
    <path
       d="M658.9,684.1c-1.7-0.8-3.7,0.1-3.9,1.7c-0.2,1.9-0.2,3.8-0.3,5.9c0.1,1.7,0.2,3.6,0.4,5.4 c0,0.6,0.5,0.8,1,0.8c2.2,0.3,3.3-0.3,3.5-2.3c0.3-2.8,0.5-5.7,0.6-8.5c0-0.7-0.1-1.4-0.3-2.1C659.7,684.6,659.3,684.3,658.9,684.1 z"
       fill="inherit"
       id="path120" />
    <path
       d="M769.7,630.2c-1.4,0.1-2.8,0.3-4.2,0.5c-0.8,0.1-1.7,1.1-1.8,2c-0.2,1.7-0.3,3.3-0.5,5 c-0.1,2,1.1,3.2,3.1,2.9c1.6-0.2,3.2-0.6,5.2-1.1c0.4-2.5,0.8-4.4,1-6.3C772.8,631.2,771.8,630.1,769.7,630.2z"
       fill="inherit"
       id="path122" />
    <path
       d="M761.2,524.8c0,0.4,0.5,0.8,0.8,1c1.8,1,3.7,0.9,5.5,0.2c0.6-0.2,1.2-0.8,1.5-1.4c0.4-1.1,0.6-2.3,0.8-3.4 c-0.3-1.7-0.4-3.3-0.8-4.9c-0.1-0.6-0.9-1.3-1.4-1.4c-1.4-0.2-2.8-0.1-4.2,0.1c-0.4,0-0.9,0.5-1.1,0.8 C761.2,518.7,761,521.7,761.2,524.8z"
       fill="inherit"
       id="path124" />
    <path
       d="M612.1,697.8c0,0.2,0.1,0.5,0.2,0.6c0.3,0.3,0.6,0.9,1,0.9c1.2,0.1,2.3,0.2,3.5,0.1c1-0.1,1.8-0.9,1.9-1.8 c0.2-1.9,0.3-3.8,0.4-4.9c0-2.4,0-4.1,0-5.7c0-0.9-0.9-1.9-1.7-1.9c-1.2,0-2.3,0-3.5,0.1c-0.9,0.1-1.8,1-1.8,1.9 C612.1,690.8,612.1,694.3,612.1,697.8z"
       fill="inherit"
       id="path126" />
    <path
       d="M617.9,638.6C617.9,638.6,617.9,638.6,617.9,638.6L617.9,638.6z"
       fill="inherit"
       id="path128" />
    <path
       d="M622.9,631.3c-0.1-0.4-0.5-0.8-0.9-1c-2.3-1.2-5.1-0.2-5.8,2.1c-0.4,1.4-0.7,2.7-1.1,4.1 c-0.2,0.9,0.6,1.8,1.6,1.9c0.5,0.1,1,0.1,1.1,0.1c0,0,0,0-0.1,0c1.8,0,2.5,0,3.2,0c0.2,0,0.5,0,0.7-0.1c1.2-0.1,2.3-1.3,2.2-2.4 C623.6,634.5,623.3,632.9,622.9,631.3z"
       fill="inherit"
       id="path130" />
    <path
       d="M349.3,190.6c-1.2,4.4-1.2,8.6-1.2,12.8c0,0.9,0.7,1.6,1.5,1.6c1.3,0,2.6-0.2,3.9-0.3 c0.6-0.1,1.2-0.7,1.2-1.4c-0.1-1.9-0.2-3.9-0.3-5.8c-0.1-1.1-0.4-2.3-0.4-3.4c0-1.2,0.4-2.4,0.6-3.7 C352.8,189.9,351.2,190.1,349.3,190.6z"
       fill="inherit"
       id="path132" />
    <path
       d="M378.6,204.1c1.9,0,2.4-0.6,2.2-2.3c-0.2-1.3-0.3-2.6-0.5-3.9c0,0,0.1,0,0.1,0c-0.1-1.3-0.1-2.6-0.3-3.9 c-0.1-0.6-0.2-1.3-0.3-1.9c-0.2-0.9-1.2-1.6-2.2-1.5c-0.5,0-1,0.1-1.4,0.2c-0.8,0.2-1.4,0.9-1.4,1.7c-0.1,2.6-0.1,5.2-0.1,7.8 c0,0.8,0.1,1.6,0.2,2.4c0.1,0.5,0.8,1.2,1.3,1.3C377,204,377.8,204.1,378.6,204.1z"
       fill="inherit"
       id="path134" />
    <path
       d="M322.6,203.2c0,0.6,0.2,1.3,0.4,1.9c0.1,0.3,0.4,0.6,0.6,0.7c1,0.5,2.1,0.7,3.3,0.5 c0.9-0.1,1.5-0.6,1.9-1.4c0.3-0.6,0.6-1.2,0.6-1.8c0.5-3.7,0.4-7.4-0.1-11.1c-0.1-0.7-0.6-1.2-1.2-1.4c-1.4-0.4-2.9-0.4-4.3,0.1 c-0.8,0.3-1.4,0.8-1.5,1.7c-0.1,1.6,0,3.2,0,5.7C322.4,199.3,322.4,201.3,322.6,203.2z"
       fill="inherit"
       id="path136" />
    <path
       d="M379.8,159.8c0.1-0.8,0.1-1.6,0.2-2.6c0-0.8,0-1.8-0.2-2.7c-0.4-2.9-1-3.6-3.7-2.7 c-1.1,0.3-2.2,0.5-3.3,0.9c-0.6,0.2-1.1,0.7-1.3,1.3c-0.1,0.6-0.2,1.3-0.3,1.9c-1.1,7.5-1.2,7.5,6.5,6.1 C379.3,161.7,379.6,161,379.8,159.8z"
       fill="inherit"
       id="path138" />
    <path
       d="M400,202c0,0.5,0.9,1.2,1.4,1.2c1.3-0.1,2.6-0.2,3.9-0.3c1-0.1,1.5-0.7,1.5-1.6c-0.1-2.9-0.3-5.9-0.4-8.8 c0-0.2,0-0.4-0.1-0.5c-0.3-0.3-0.6-0.8-1.1-0.9c-0.4-0.2-1-0.1-1.4,0c-3.7,0.3-4,0.6-3.9,4c0,0.7,0.1,1.3,0.2,3.1 C400,198.8,400,200.4,400,202z"
       fill="inherit"
       id="path140" />
    <path
       d="M429.4,191.9c-0.1-0.1-0.2-0.2-0.3-0.3c-0.1-0.1-0.3-0.2-0.4-0.2c-0.3,0.1-0.7,0.2-0.8,0.4 c-0.8,1.8-0.4,3.8-0.5,5.7c0,1.3,0,2.6,0,3.8c0,0.3,0.1,0.7,0.3,0.9c0.2,0.2,0.6,0.4,0.8,0.3c0.8-0.2,1.4-0.7,1.5-1.6 c0.5-2.7,0.4-5.4-0.2-8.1C429.7,192.5,429.5,192.2,429.4,191.9z"
       fill="inherit"
       id="path142" />
    <path
       d="M346.4,238.1c0,0.6,0.6,1.3,1.2,1.3c1,0,1.9,0,2.9,0c0,0,0,0.1,0,0.1c0.5,0,1,0,1.5,0 c1.9,0,2.7-0.6,3.1-2.4c0.3-1.1,0.5-2.2,0.2-3.4c-0.1-0.3-0.3-0.6-0.6-0.7c-2-0.7-4.1-0.8-6.2-0.5c-0.7,0.1-1.1,0.6-1.4,1.2 C346.4,235.1,346.4,236.6,346.4,238.1z"
       fill="inherit"
       id="path144" />
    <path
       d="M379.8,275c-0.1,0-0.2,0-0.2,0c0-1.5,0-2.9,0-4.4c0-0.6-0.6-1.1-1.3-1.3c-1.3-0.3-2.3,0.4-2.4,1.6 c-0.1,2.4-0.2,4.9-0.3,7.3c0,0.5,0.1,1,0.2,1.4c0.1,0.8,0.7,1.2,1.8,1.3c0.9,0.1,1.8-0.5,1.8-1.2 C379.5,278.2,379.6,276.6,379.8,275z"
       fill="inherit"
       id="path146" />
    <path
       d="M397.1,282.9c1.5,0.1,2.9,0,4.4,0c0.2-0.4,0.5-0.9,0.5-1.3c0.1-2.3,0.1-4.5,0.1-6.8c0-0.3-0.1-0.7-0.3-0.9 c-0.2-0.2-0.5-0.5-0.7-0.5c-2.7,0-3.7,0.8-4.1,3.1c-0.2,1.4-0.5,2.9-0.7,4.3c-0.1,0.5,0,1,0.1,1.4 C396.6,282.5,396.9,282.9,397.1,282.9z"
       fill="inherit"
       id="path148" />
    <path
       d="M356,159.8c0-0.8,0-1.6,0-2.4c0,0,0,0,0.1,0c0-1.3,0-2.6,0-3.9c0-0.2-0.4-0.6-0.7-0.6 c-1.6,0-3.3,0.1-4.9,0.1c-2.1,0-2.6,0.6-3,2.5c-0.2,1.1-0.3,2.3-0.4,3.4c-0.2,1.8,0.1,2.5,2.4,2.7c1.3,0.1,2.6,0.3,3.9,0.5 C355.3,162.2,356,162.5,356,159.8z"
       fill="inherit"
       id="path150" />
    <path
       d="M398.3,160.9c1.6,0,3.3,0,4.9-0.1c2.2-0.1,2.6-0.5,3.2-2.9c0.2-0.6,0.2-1.3,0.2-1.9c0.1-3.2-0.5-3.7-3.2-3 c-1.7,0.4-3.6,0.3-5.3,1.4c-0.9,1.5-1.2,3.3-1.3,5.1C396.7,160.3,397.3,160.9,398.3,160.9z"
       fill="inherit"
       id="path152" />
    <path
       d="M328,162.6c0.3-0.1,0.6-0.1,0.9-0.2c0.6-0.2,1.1-0.7,1.2-1.4c0.1-0.8,0.1-1.6,0.2-2.5 c-0.2-1.5-0.3-3.1-0.6-4.7c-0.1-0.9-0.8-1.4-1.6-1.5c-2.3,0-3,0.5-3.5,2.5c-0.3,1.3-0.5,2.5-0.7,3.8 C322.9,163.2,324,163.3,328,162.6z"
       fill="inherit"
       id="path154" />
    <path
       d="M403,231.1c-0.3,0-0.6,0-1-0.1c-0.3,0-0.6,0-1,0c-1.1,0-1.9,0.5-2.2,1.5c-0.8,2.1-1.3,4.3-1.4,6.6 c0,0.5,0.7,1.4,1.1,1.4c1.9,0.2,3.8,0.4,5.8,0.6c0.9,0.1,2-0.7,2.2-1.6c0.3-1.4,0.6-2.9,0.6-4.3C407,232.2,406.1,231.3,403,231.1z"
       fill="inherit"
       id="path156" />
    <path
       d="M422.6,282.2c1-0.1,1.9-0.2,2.9-0.3c0.6-0.1,1.2-0.6,1.3-1.3c0.1-1.1,0.2-2.3,0.5-4.1c0-0.2,0-1.2,0-2.2 c0-0.7-0.6-1.4-1.2-1.3c-1.1,0.1-2.2,0.2-3.3,0.4c-0.3,0-0.6,0.4-0.7,0.6c-0.4,2.4-0.8,4.8-0.5,7.2 C421.7,281.8,422.2,282.3,422.6,282.2z"
       fill="inherit"
       id="path158" />
    <path
       d="M377.5,233.7c-0.4,2.4-0.8,4.8-0.5,7.2c0,0.4,0.6,0.9,1,0.8c1-0.1,1.9-0.2,2.9-0.3c0.6-0.1,1.2-0.6,1.3-1.3 c0.1-1.1,0.2-2.3,0.5-4.1c0-0.2,0-1.2,0-2.2c0-0.7-0.6-1.4-1.2-1.3c-1.1,0.1-2.2,0.2-3.3,0.4C377.9,233.1,377.5,233.4,377.5,233.7z"
       fill="inherit"
       id="path160" />
    <path
       d="M354.1,268.4c-1.2-0.6-2.6,0.1-2.7,1.2c-0.1,1.3-0.2,2.6-0.2,4c0.1,1.2,0.1,2.4,0.3,3.7 c0,0.4,0.3,0.5,0.7,0.6c1.5,0.2,2.3-0.2,2.4-1.6c0.2-1.9,0.3-3.9,0.4-5.8c0-0.5-0.1-1-0.2-1.4C354.6,268.8,354.3,268.5,354.1,268.4 z"
       fill="inherit"
       id="path162" />
    <path
       d="M427.1,231.8c-0.6,0.1-1.2,0.8-1.2,1.4c-0.1,1.1-0.2,2.3-0.3,3.4c-0.1,1.3,0.8,2.2,2.1,2 c1.1-0.1,2.2-0.4,3.6-0.7c0.3-1.7,0.5-3,0.7-4.3c0.2-1.4-0.5-2.1-1.9-2.1C429.1,231.5,428.1,231.6,427.1,231.8z"
       fill="inherit"
       id="path164" />
    <path
       d="M424.8,159.9c1.2,0.7,2.5,0.6,3.8,0.1c0.4-0.2,0.9-0.6,1-0.9c0.3-0.7,0.4-1.6,0.6-2.4 c-0.2-1.1-0.3-2.3-0.6-3.4c-0.1-0.4-0.6-0.9-1-0.9c-0.9-0.1-1.9,0-2.9,0c-0.3,0-0.6,0.3-0.7,0.6c-0.8,2-1,4.1-0.8,6.2 C424.2,159.4,424.5,159.7,424.8,159.9z"
       fill="inherit"
       id="path166" />
    <path
       d="M322.8,278.9c0.8,0.1,1.6,0.1,2.4,0.1c0.7,0,1.3-0.6,1.3-1.2c0.1-1.3,0.2-2.6,0.3-3.3c0-1.7,0-2.8,0-3.9 c0-0.6-0.6-1.3-1.2-1.3c-0.8,0-1.6,0-2.4,0.1c-0.6,0.1-1.2,0.7-1.2,1.3c0,2.4,0,4.8,0,7.3c0,0.1,0.1,0.3,0.2,0.4 C322.3,278.5,322.5,278.8,322.8,278.9z"
       fill="inherit"
       id="path168" />
    <path
       d="M325.9,237.2C325.9,237.2,325.9,237.2,325.9,237.2L325.9,237.2z"
       fill="inherit"
       id="path170" />
    <path
       d="M328.1,237.2c0.2,0,0.3,0,0.5,0c0.8-0.1,1.6-0.9,1.5-1.6c-0.2-1.1-0.4-2.2-0.7-3.3 c-0.1-0.3-0.4-0.5-0.6-0.7c-1.6-0.8-3.5-0.2-4,1.4c-0.3,0.9-0.5,1.9-0.7,2.8c-0.1,0.6,0.4,1.3,1.1,1.3c0.3,0,0.6,0.1,0.7,0.1 c0,0,0,0,0,0C327.1,237.2,327.6,237.2,328.1,237.2z"
       fill="inherit"
       id="path172" />
    <path
       d="M37.7,325.9c-1.7,6.4-1.8,12.5-1.8,18.7c0,1.3,1,2.3,2.2,2.3c1.9-0.1,3.8-0.2,5.6-0.4 c0.9-0.1,1.8-1.1,1.7-2c-0.1-2.8-0.2-5.7-0.4-8.5c-0.1-1.7-0.6-3.3-0.6-4.9c0.1-1.8,0.6-3.5,0.9-5.4 C42.9,324.9,40.6,325.1,37.7,325.9z"
       fill="inherit"
       id="path174" />
    <path
       d="M77,345.4c1.2,0.1,2.4,0.2,3.5,0.2c2.7,0,3.4-0.9,3.1-3.3c-0.2-1.9-0.5-3.8-0.7-5.6c0.1,0,0.1,0,0.2,0 c-0.1-1.9-0.2-3.8-0.4-5.7c-0.1-0.9-0.3-1.9-0.5-2.8c-0.3-1.3-1.7-2.3-3.2-2.3c-0.7,0-1.4,0.1-2.1,0.3c-1.2,0.3-2.1,1.3-2.1,2.5 c-0.1,3.8-0.2,7.6-0.2,11.4c0,1.2,0.2,2.3,0.4,3.5C75.1,344.3,76.2,345.3,77,345.4z"
       fill="inherit"
       id="path176" />
    <path
       d="M5,348.8c1.3-0.2,2.2-0.9,2.7-2c0.4-0.8,0.8-1.7,0.9-2.6c0.7-5.4,0.6-10.8-0.2-16.2c-0.1-1-0.8-1.7-1.8-2 c-2.1-0.6-4.2-0.6-6.2,0.2c-0.2,0.1-0.3,0.1-0.5,0.2v21.4c0.1,0.1,0.1,0.1,0.2,0.1C1.7,348.7,3.3,349,5,348.8z"
       fill="inherit"
       id="path178" />
    <path
       d="M70.1,272.4c-0.2,0.9-0.3,1.9-0.5,2.8c-1.6,11-1.7,10.9,9.4,9c2.5-0.4,2.9-1.5,3.2-3.2 c0.2-1.2,0.2-2.4,0.3-3.8c-0.1-1.1-0.1-2.6-0.3-4c-0.6-4.3-1.4-5.2-5.5-4c-1.6,0.5-3.2,0.8-4.8,1.2C71,270.7,70.3,271.4,70.1,272.4 z"
       fill="inherit"
       id="path180" />
    <path
       d="M111.6,342.6c0,0.7,1.3,1.8,2,1.8c1.9-0.1,3.8-0.3,5.7-0.5c1.4-0.2,2.2-1,2.2-2.3 c-0.2-4.3-0.4-8.5-0.6-12.8c0-0.2-0.1-0.5-0.2-0.7c-0.5-0.5-0.9-1.1-1.5-1.3c-0.6-0.2-1.4-0.1-2.1-0.1c-5.3,0.4-5.8,0.9-5.7,5.9 c0,0.9,0.1,1.9,0.2,4.5C111.6,337.8,111.6,340.2,111.6,342.6z"
       fill="inherit"
       id="path182" />
    <path
       d="M151.5,341.4c0,0.4,0.2,1,0.4,1.3c0.2,0.3,0.8,0.5,1.1,0.5c1.2-0.3,2-1.1,2.3-2.3c0.7-4,0.6-7.9-0.3-11.8 c-0.1-0.4-0.3-0.9-0.6-1.3c-0.1-0.2-0.3-0.3-0.5-0.4c-0.2-0.1-0.4-0.4-0.6-0.3c-0.4,0.1-1.1,0.2-1.2,0.5c-1.1,2.7-0.6,5.5-0.7,8.3 C151.5,337.7,151.5,339.6,151.5,341.4z"
       fill="inherit"
       id="path184" />
    <path
       d="M45.7,387.8c-3-1-6-1.1-9.1-0.7c-1,0.1-1.7,0.8-2.1,1.7c-1,2-1,4.1-1,6.2c0,0.9,0.9,1.9,1.7,1.9 c1.4,0,2.8,0,4.2,0c0,0.1,0,0.1,0,0.2c0.7,0,1.4,0,2.1,0c2.7,0,3.9-0.9,4.5-3.5c0.4-1.6,0.8-3.2,0.3-4.9 C46.4,388.5,46.1,388,45.7,387.8z"
       fill="inherit"
       id="path186" />
    <path
       d="M81.8,442.6c0-0.9-0.8-1.6-1.9-1.8c-1.9-0.4-3.4,0.5-3.5,2.4c-0.2,3.5-0.4,7.1-0.5,10.6 c0,0.7,0.2,1.4,0.3,2.1c0.2,1.2,1.1,1.8,2.6,1.9c1.3,0.1,2.6-0.7,2.7-1.8c0.3-2.3,0.5-4.7,0.7-7c-0.1,0-0.2,0-0.3,0 C81.8,446.9,81.9,444.7,81.8,442.6z"
       fill="inherit"
       id="path188" />
    <path
       d="M113.4,446.6c-3.9,0-5.4,1.1-6,4.5c-0.3,2.1-0.7,4.2-1,6.3c-0.1,0.7,0,1.4,0.2,2.1c0.1,0.4,0.6,1,0.9,1 c2.1,0.1,4.2,0,6.5,0c0.3-0.6,0.8-1.3,0.8-1.9c0.1-3.3,0.1-6.6,0.2-10c0-0.4-0.2-1-0.4-1.3C114.3,447,113.8,446.6,113.4,446.6z"
       fill="inherit"
       id="path190" />
    <path
       d="M46.6,270.8c-2.4,0-4.7,0.1-7.1,0.1c-3,0-3.8,0.8-4.3,3.6c-0.3,1.6-0.4,3.3-0.6,4.9 c-0.3,2.6,0.2,3.7,3.5,3.9c1.9,0.1,3.8,0.4,5.7,0.7c2.7,0.4,3.8,0.8,3.8-3.1c0-1.2,0-2.4,0-3.6c0,0,0,0,0.1,0c0-1.9,0-3.8,0-5.7 C47.5,271.3,46.9,270.8,46.6,270.8z"
       fill="inherit"
       id="path192" />
    <path
       d="M116.6,271c-2.5,0.6-5.2,0.4-7.7,2c-1.3,2.2-1.7,4.8-1.9,7.4c-0.1,1.3,0.7,2.1,2.2,2.1c2.4,0,4.8,0,7.1-0.1 c3.2-0.1,3.8-0.7,4.7-4.2c0.2-0.9,0.3-1.9,0.3-2.8C121.5,270.6,120.7,270,116.6,271z"
       fill="inherit"
       id="path194" />
    <path
       d="M7,270.1c-3.3,0-4.4,0.7-5.1,3.6c-0.4,1.8-0.7,3.7-1.1,5.5c-1.5,6.7,0,6.8,6,5.9c0.5-0.1,0.9-0.2,1.4-0.4 c0.9-0.3,1.6-1,1.8-2c0.2-1.1,0.2-2.3,0.3-3.6c-0.3-2.2-0.5-4.5-0.8-6.9C9.2,271,8.1,270.1,7,270.1z"
       fill="inherit"
       id="path196" />
    <path
       d="M116,385c-0.5,0-0.9-0.1-1.4-0.1c-0.5,0-0.9,0-1.4,0c-1.6,0-2.8,0.7-3.3,2.2c-1.1,3.1-1.9,6.3-2,9.6 c0,0.7,1,2,1.6,2.1c2.8,0.3,5.6,0.6,8.4,0.9c1.4,0.1,2.9-1,3.1-2.3c0.4-2.1,0.9-4.2,0.8-6.3C121.8,386.5,120.5,385.3,116,385z"
       fill="inherit"
       id="path198" />
    <path
       d="M144.7,459.5c1.4-0.1,2.8-0.2,4.2-0.4c0.9-0.1,1.8-0.9,1.9-1.8c0.2-1.6,0.4-3.3,0.7-6c0-0.3,0-1.8,0-3.2 c0-0.9-0.9-2-1.7-1.9c-1.6,0.1-3.3,0.3-4.9,0.6c-0.4,0.1-0.9,0.6-1,0.9c-0.5,3.5-1.1,7-0.7,10.6 C143.3,458.8,144.1,459.6,144.7,459.5z"
       fill="inherit"
       id="path200" />
    <path
       d="M78.8,388.7c-0.5,3.5-1.1,7-0.7,10.6c0.1,0.5,0.9,1.3,1.5,1.2c1.4-0.1,2.8-0.2,4.2-0.4 c0.9-0.1,1.8-0.9,1.9-1.8c0.2-1.6,0.4-3.3,0.7-6c0-0.3,0-1.8,0-3.2c0-0.9-0.9-2-1.7-1.9c-1.6,0.1-3.3,0.3-4.9,0.6 C79.4,387.8,78.9,388.3,78.8,388.7z"
       fill="inherit"
       id="path202" />
    <path
       d="M44.7,439.3c-1.7-0.8-3.7,0.1-3.9,1.7c-0.2,1.9-0.2,3.8-0.3,5.9c0.1,1.7,0.2,3.6,0.4,5.4 c0,0.6,0.5,0.8,1,0.8c2.2,0.3,3.3-0.3,3.5-2.4c0.3-2.8,0.5-5.7,0.6-8.5c0-0.7-0.1-1.4-0.3-2.1C45.5,439.9,45.1,439.5,44.7,439.3z"
       fill="inherit"
       id="path204" />
    <path
       d="M155.5,385.4c-1.4,0.1-2.8,0.3-4.2,0.5c-0.8,0.1-1.7,1.1-1.8,2c-0.2,1.7-0.3,3.3-0.4,5 c-0.1,2,1.1,3.2,3.1,2.9c1.6-0.2,3.2-0.6,5.2-1.1c0.4-2.5,0.8-4.4,1-6.3C158.6,386.4,157.6,385.4,155.5,385.4z"
       fill="inherit"
       id="path206" />
    <path
       d="M147.8,281.1c1.8,1,3.7,0.9,5.5,0.2c0.6-0.2,1.2-0.8,1.5-1.4c0.4-1.1,0.6-2.3,0.8-3.4 c-0.3-1.7-0.4-3.3-0.8-4.9c-0.1-0.6-0.9-1.3-1.4-1.4c-1.4-0.2-2.8-0.1-4.2,0.1c-0.4,0-0.9,0.5-1.1,0.8c-1.1,2.9-1.4,5.9-1.1,9 C147,280.4,147.5,280.9,147.8,281.1z"
       fill="inherit"
       id="path208" />
    <path
       d="M2.5,454.7c1-0.1,1.8-0.9,1.9-1.8c0.2-1.9,0.3-3.8,0.4-4.9c0-2.4,0-4.1,0-5.7c0-0.9-0.9-1.9-1.7-1.9 c-1.1,0-2.1,0-3.2,0.1v14.1C0.8,454.7,1.7,454.7,2.5,454.7z"
       fill="inherit"
       id="path210" />
    <path
       d="M3.6,393.8C3.7,393.8,3.7,393.8,3.6,393.8L3.6,393.8z"
       fill="inherit"
       id="path212" />
    <path
       d="M8.6,386.5c-0.1-0.4-0.5-0.8-0.9-1c-2.3-1.2-5.1-0.2-5.8,2.1c-0.4,1.4-0.7,2.7-1.1,4.1 c-0.2,0.9,0.6,1.8,1.6,1.9c0.5,0.1,1,0.1,1.1,0.1c0,0,0,0-0.1,0c1.8,0,2.5,0,3.2,0c0.2,0,0.5,0,0.7-0.1c1.2-0.1,2.3-1.3,2.2-2.4 C9.4,389.7,9,388.1,8.6,386.5z"
       fill="inherit"
       id="path214" />
    <path
       d="M862.4,328.7c-0.1,2.4,0,4.7,0,8.3c0.1,1.6,0.2,4.4,0.4,7.2c0.1,0.9,0.3,1.9,0.6,2.8 c0.1,0.3,0.4,0.6,0.7,0.9v-21.4C863.1,326.9,862.4,327.6,862.4,328.7z"
       fill="inherit"
       id="path216" />
    <path
       d="M838.6,325.9c-0.7,0-1.4,0.1-2.1,0.3c-1.2,0.3-2.1,1.3-2.1,2.5c-0.1,3.8-0.2,7.6-0.2,11.4 c0,1.2,0.2,2.3,0.4,3.5c0.1,0.7,1.2,1.8,2,1.8c1.2,0.1,2.4,0.2,3.5,0.2c2.7,0,3.4-0.9,3.1-3.3c-0.2-1.9-0.5-3.8-0.7-5.6 c0.1,0,0.1,0,0.2,0c-0.1-1.9-0.2-3.8-0.4-5.7c-0.1-0.9-0.3-1.9-0.5-2.8C841.5,326.8,840,325.8,838.6,325.9z"
       fill="inherit"
       id="path218" />
    <path
       d="M838.6,284.2c2.5-0.4,2.9-1.5,3.2-3.2c0.2-1.2,0.2-2.4,0.3-3.8c-0.1-1.1-0.1-2.6-0.3-4 c-0.6-4.3-1.4-5.2-5.5-4c-1.6,0.5-3.2,0.8-4.8,1.2c-0.9,0.3-1.6,1-1.9,2c-0.2,0.9-0.3,1.9-0.5,2.8 C827.6,286.2,827.5,286.1,838.6,284.2z"
       fill="inherit"
       id="path220" />
    <path
       d="M841.4,442.6c0-0.9-0.8-1.6-1.9-1.8c-1.9-0.4-3.4,0.5-3.5,2.4c-0.2,3.5-0.4,7.1-0.5,10.6 c0,0.7,0.2,1.4,0.3,2.1c0.2,1.2,1.1,1.8,2.6,1.9c1.3,0.1,2.6-0.7,2.7-1.8c0.3-2.3,0.5-4.7,0.7-7c-0.1,0-0.2,0-0.3,0 C841.4,446.9,841.4,444.7,841.4,442.6z"
       fill="inherit"
       id="path222" />
    <path
       d="M844.2,387.2c-1.6,0.1-3.3,0.3-4.9,0.6c-0.4,0.1-0.9,0.6-1,0.9c-0.5,3.5-1.1,7-0.7,10.6 c0.1,0.5,0.9,1.3,1.5,1.2c1.4-0.1,2.8-0.2,4.2-0.4c0.9-0.1,1.8-0.9,1.9-1.8c0.2-1.6,0.4-3.3,0.7-6c0-0.3,0-1.8,0-3.2 C845.9,388.1,845,387.1,844.2,387.2z"
       fill="inherit"
       id="path224" />
    <path
       d="M861.9,442.5c0,3.5,0,7.1,0,10.6c0,0.2,0.1,0.5,0.2,0.6c0.3,0.3,0.6,0.9,1,0.9c0.3,0,0.6,0,1,0.1v-14.1 c-0.1,0-0.2,0-0.3,0C862.8,440.7,861.9,441.6,861.9,442.5z"
       fill="inherit"
       id="path226" />
  </g>
  <g
     fill="#F0D4CE"
     id="change2_1">
    <path
       d="M170.3,51.1c2.3-0.3,4.5-0.6,6.7-1.6c0.7-0.3,1.3-0.5,2-0.8c0.2-0.1,0.4-0.6,0.3-0.8 c-1-2.2-1.5-4.6-2.1-6.9c-0.2-0.9-0.6-1.8-0.9-2.7c-0.3-0.7-0.7-1.2-1.3-1.4c-1.2-0.5-2.3-0.9-3.5-1.1c-2.2-0.4-4.3-0.8-6.5-1.2 c-0.2,0-0.3,0-0.6,0.1c-0.1,0.3-0.3,0.5-0.3,0.8c0,1-0.1,1.9,0,2.9c0.2,3.3,0.7,6.6,1.2,9.9c0,0.2,0.1,0.4,0.1,0.6 c0.3,1,0.8,1.7,1.6,1.8C168,51,169.2,51.3,170.3,51.1z"
       fill="inherit"
       id="path229" />
    <path
       d="M64.3,100c3.1,0.1,6.2-0.1,9.2-0.6c0.7-0.1,1.5-0.9,1.6-1.7c0.5-4.4,0.5-8.7-0.1-13 c-0.4-2.5-1.5-4.8-2.8-6.9c-0.8-1.3-2-2.2-3.6-2.3c-1.6-0.2-3.2-0.3-5.1-0.4C58.2,74.9,53,76,47.7,77.3c-0.2,0-0.3,0.2-0.4,0.2 c-0.3,0.1-0.6,0.9-0.4,1.3c1,1.7,2.1,3.4,3.2,5.1c1.9,3.1,3.7,6.3,5.5,9.5c1.1,1.9,2.5,3.5,4.2,4.9C61.1,99.3,62.6,100,64.3,100z"
       fill="inherit"
       id="path231" />
    <path
       d="M483.9,87.7c-0.2-1.2-0.9-1.7-1.8-1.8c-5.3-0.1-10.4,1.6-15.7,1.8c-0.8,0-1.5,1.6-1.1,2.4 c0.7,1.5,1.4,2.9,2.1,4.3c3.6,6.4,7.8,12.2,10.8,19.2c0.1,0.3,0.6,0.4,0.9,0.6c1.2-1.1,2.4-2.2,3.6-3.3c1.6-1.5,2.9-3.4,4.2-5.4 c0.6-0.9,0.7-2,0.4-3C485.9,97.6,484.7,92.7,483.9,87.7z"
       fill="inherit"
       id="path233" />
    <path
       d="M356.6,94.8c-4.5-1.8-4.9-1.7-9.3,0.8c-0.3,0.2-0.6,0.3-0.9,0.6c-0.7,0.6-1.2,1.3-1.3,2.2 c-0.1,0.7-0.1,1.4-0.2,2.7c-0.4,1.7,0.6,3.5,2,5.2c1.6,2,3.7,2.7,6.1,2.2c4.6-0.9,8.4-3.3,11.1-7.3c0.5-0.7,0.4-1.8-0.3-2.4 C361.7,97.1,359.2,95.8,356.6,94.8z"
       fill="inherit"
       id="path235" />
    <path
       d="M285.2,59.5c1.3-0.5,1.9-1.6,1.6-2.9c-0.4-1.8-1.1-2.5-2.8-2.7c-1.4-0.1-2.8-0.2-4.2-0.2 c-1.8,0-3.5,0.1-5.2,0.2c-1.5-0.1-2.9-0.2-4.3-0.3c-1.6-0.1-3.1-0.1-4.7-0.1c-1.2,0-1.8,0.8-1.6,2.1c0.1,0.7,0.4,1.4,0.5,2.1 c0.3,1.8,1.3,2.8,3.1,3.1c1,0.2,2.1,0.4,3.1,0.4c2.5,0,4.9,0.1,7.4-0.1C280.5,61,282.9,60.4,285.2,59.5z"
       fill="inherit"
       id="path237" />
    <path
       d="M533.5,57.4c0.4-0.1,1.5-0.3,2.4-0.6c0.2-0.1,0.4-0.6,0.3-0.9c-0.2-0.9-0.8-1.5-1.6-2 c-3.1-1.6-6.5-2.1-9.9-2.7c-0.2,0-0.5,0.4-0.6,0.7c-0.3,0.7,0,1.4,0.4,1.9C526.9,56.1,529.6,57.5,533.5,57.4z"
       fill="inherit"
       id="path239" />
    <path
       d="M719,37.2c0.2,0.9,0.6,1.8,0.9,2.7c0.3,0.7,0.7,1.2,1.3,1.4c1.2,0.5,2.3,0.9,3.5,1.1 c2.2,0.4,4.3,0.8,6.5,1.2c0.2,0,0.3,0,0.6-0.1c0.1-0.3,0.3-0.5,0.3-0.8c0-1,0.1-1.9,0-2.9c-0.2-3.3-0.7-6.6-1.2-9.9 c0-0.2-0.1-0.4-0.1-0.6c-0.3-1-0.8-1.7-1.6-1.8c-1.1-0.2-2.3-0.4-3.4-0.3c-2.3,0.3-4.5,0.6-6.7,1.6c-0.7,0.3-1.3,0.5-2,0.8 c-0.2,0.1-0.4,0.6-0.3,0.8C717.9,32.4,718.4,34.8,719,37.2z"
       fill="inherit"
       id="path241" />
    <path
       d="M827.6,2.8c1.6,0.2,3.2,0.3,5.1,0.4c5.2,0.1,10.5-0.9,15.7-2.3c0.2,0,0.3-0.2,0.4-0.2 c0.2-0.1,0.4-0.4,0.5-0.7h-25.6c0.1,0.2,0.2,0.3,0.3,0.5C824.8,1.8,826,2.7,827.6,2.8z"
       fill="inherit"
       id="path243" />
    <path
       d="M447.7,39.4c0.2,1.2,0.9,1.7,1.8,1.8c5.3,0.1,10.4-1.6,15.7-1.8c0.8,0,1.5-1.6,1.1-2.4 c-0.7-1.5-1.4-2.9-2.1-4.3c-3.6-6.4-7.8-12.2-10.8-19.2c-0.1-0.3-0.6-0.4-0.9-0.6c-1.2,1.1-2.4,2.2-3.6,3.3 c-1.6,1.5-2.9,3.4-4.2,5.4c-0.6,0.9-0.7,2-0.4,3C445.7,29.4,446.8,34.3,447.7,39.4z"
       fill="inherit"
       id="path245" />
    <path
       d="M597,45.3c-0.1-0.7-0.4-1.4-0.5-2.1c-0.3-1.8-1.3-2.8-3.1-3.1c-1-0.2-2.1-0.4-3.1-0.4 c-2.5,0-4.9-0.1-7.4,0.1c-2.5,0.2-4.8,0.7-7.1,1.7c-1.3,0.5-1.9,1.6-1.6,2.9c0.4,1.8,1.1,2.5,2.8,2.7c1.4,0.1,2.8,0.2,4.2,0.2 c1.8,0,3.5-0.1,5.2-0.2c1.5,0.1,2.9,0.2,4.3,0.3c1.6,0.1,3.1,0.1,4.7,0.1C596.6,47.4,597.2,46.6,597,45.3z"
       fill="inherit"
       id="path247" />
    <path
       d="M361.4,24.3c3.1,1.6,6.5,2.1,9.9,2.7c0.2,0,0.5-0.4,0.6-0.7c0.3-0.7,0-1.4-0.4-1.9c-2.3-2.3-5-3.6-8.9-3.5 c-0.4,0.1-1.5,0.3-2.4,0.6c-0.2,0.1-0.4,0.6-0.3,0.9C360,23.3,360.6,23.9,361.4,24.3z"
       fill="inherit"
       id="path249" />
    <path
       d="M101.2,164.5c3.6,6.4,7.8,12.2,10.8,19.2c0.1,0.3,0.6,0.4,0.9,0.6c1.2-1.1,2.4-2.2,3.6-3.3 c1.6-1.5,2.9-3.4,4.2-5.4c0.6-0.9,0.7-2,0.4-3c-1.5-4.8-2.6-9.7-3.5-14.8c-0.2-1.2-0.9-1.7-1.8-1.8c-5.3-0.1-10.4,1.6-15.7,1.8 c-0.8,0-1.5,1.6-1.1,2.4C99.8,161.6,100.5,163.1,101.2,164.5z"
       fill="inherit"
       id="path251" />
    <path
       d="M9.2,231.7c0.5-0.7,0.4-1.8-0.3-2.4c-2.2-1.8-4.7-3.1-7.3-4.1C1,225,0.5,224.8,0,224.6v13.8 C3.8,237.3,6.9,235.1,9.2,231.7z"
       fill="inherit"
       id="path253" />
    <path
       d="M694.5,107.9c0.3,1.8,1.3,2.8,3.1,3.1c1,0.2,2.1,0.4,3.1,0.4c2.5,0,4.9,0.1,7.4-0.1 c2.5-0.2,4.8-0.7,7.1-1.7c1.3-0.5,1.9-1.6,1.6-2.9c-0.4-1.8-1.1-2.5-2.8-2.7c-1.4-0.1-2.8-0.2-4.2-0.2c-1.8,0-3.5,0.1-5.2,0.2 c-1.5-0.1-2.9-0.2-4.3-0.3c-1.6-0.1-3.1-0.1-4.7-0.1c-1.2,0-1.8,0.8-1.6,2.1C694.2,106.5,694.4,107.2,694.5,107.9z"
       fill="inherit"
       id="path255" />
    <path
       d="M180.9,187.2c0.2-0.1,0.4-0.6,0.3-0.9c-0.2-0.9-0.8-1.5-1.6-2c-3.1-1.6-6.5-2.1-9.9-2.7 c-0.2,0-0.5,0.4-0.6,0.7c-0.3,0.7,0,1.4,0.4,1.9c2.3,2.3,5,3.6,8.9,3.5C178.9,187.7,179.9,187.5,180.9,187.2z"
       fill="inherit"
       id="path257" />
    <path
       d="M197.3,247.5c-0.7-1.5-1.4-2.9-2.1-4.3c-3.6-6.4-7.8-12.2-10.8-19.2c-0.1-0.3-0.6-0.4-0.9-0.6 c-1.2,1.1-2.4,2.2-3.6,3.3c-1.6,1.5-2.9,3.4-4.2,5.4c-0.6,0.9-0.7,2-0.4,3c1.5,4.8,2.6,9.7,3.5,14.8c0.2,1.2,0.9,1.7,1.8,1.8 c5.3,0.1,10.4-1.6,15.7-1.8C197.1,249.9,197.7,248.3,197.3,247.5z"
       fill="inherit"
       id="path259" />
    <path
       d="M815.9,512c0.4-0.1,1.5-0.3,2.4-0.6c0.2-0.1,0.4-0.6,0.3-0.9c-0.2-0.9-0.8-1.5-1.6-2 c-3.1-1.6-6.5-2.1-9.9-2.7c-0.2,0-0.5,0.4-0.6,0.7c-0.3,0.7,0,1.4,0.4,1.9C809.2,510.8,812,512.1,815.9,512z"
       fill="inherit"
       id="path261" />
    <path
       d="M818,575.8c5.3,0.1,10.4-1.6,15.7-1.8c0.8,0,1.5-1.6,1.1-2.4c-0.7-1.5-1.4-2.9-2.1-4.3 c-3.6-6.4-7.8-12.2-10.8-19.2c-0.1-0.3-0.6-0.4-0.9-0.6c-1.2,1.1-2.4,2.2-3.6,3.3c-1.6,1.5-2.9,3.4-4.2,5.4c-0.6,0.9-0.7,2-0.4,3 c1.5,4.8,2.6,9.7,3.5,14.8C816.4,575.2,817.1,575.8,818,575.8z"
       fill="inherit"
       id="path263" />
    <path
       d="M176.8,107.4c-0.5,0.7-0.4,1.8,0.3,2.4c2.2,1.8,4.7,3.1,7.3,4.1c4.5,1.8,4.9,1.7,9.3-0.8 c0.3-0.2,0.6-0.3,0.9-0.6c0.7-0.6,1.2-1.3,1.3-2.2c0.1-0.7,0.1-1.4,0.2-2.7c0.4-1.7-0.6-3.5-2-5.2c-1.6-2-3.7-2.7-6.1-2.2 C183.3,101.1,179.5,103.5,176.8,107.4z"
       fill="inherit"
       id="path265" />
    <path
       d="M222,177.5c1.4,0.1,2.8,0.2,4.2,0.2c1.8,0,3.5-0.1,5.2-0.2c1.5,0.1,2.9,0.2,4.3,0.3 c1.6,0.1,3.1,0.1,4.7,0.1c1.2,0,1.8-0.8,1.6-2.1c-0.1-0.7-0.4-1.4-0.5-2.1c-0.3-1.8-1.3-2.8-3.1-3.1c-1-0.2-2.1-0.4-3.1-0.4 c-2.5,0-4.9-0.1-7.4,0.1c-2.5,0.2-4.8,0.7-7.1,1.7c-1.3,0.5-1.9,1.6-1.6,2.9C219.6,176.6,220.3,177.4,222,177.5z"
       fill="inherit"
       id="path267" />
    <path
       d="M527.2,582.4c0-0.2-0.1-0.4-0.1-0.6c-0.3-1-0.8-1.7-1.6-1.8c-1.1-0.2-2.3-0.4-3.4-0.3 c-2.3,0.3-4.5,0.6-6.7,1.6c-0.7,0.3-1.3,0.5-2,0.8c-0.2,0.1-0.4,0.6-0.3,0.8c1,2.2,1.5,4.6,2.1,6.9c0.2,0.9,0.6,1.8,0.9,2.7 c0.3,0.7,0.7,1.2,1.3,1.4c1.2,0.5,2.3,0.9,3.5,1.1c2.2,0.4,4.3,0.8,6.5,1.2c0.2,0,0.3,0,0.6-0.1c0.1-0.3,0.3-0.5,0.3-0.8 c0-1,0.1-1.9,0-2.9C528.2,589,527.7,585.7,527.2,582.4z"
       fill="inherit"
       id="path269" />
    <path
       d="M342.3,498.2c-0.7-1.5-1.4-2.9-2.1-4.3c-3.6-6.4-7.8-12.2-10.8-19.2c-0.1-0.3-0.6-0.4-0.9-0.6 c-1.2,1.1-2.4,2.2-3.6,3.3c-1.6,1.5-2.9,3.4-4.2,5.4c-0.6,0.9-0.7,2-0.4,3c1.5,4.8,2.6,9.7,3.5,14.8c0.2,1.2,0.9,1.7,1.8,1.8 c5.3,0.1,10.4-1.6,15.7-1.8C342,500.6,342.7,499,342.3,498.2z"
       fill="inherit"
       id="path271" />
    <path
       d="M93.2,9.2c0.3,0.1,0.7-0.1,1.1-0.1c0.2-1.6,0.4-3.2,0.6-4.8c0.2-1.4,0.2-2.8,0-4.2H69.5 c1,0.5,2.1,1,3.1,1.4C79.5,4,86.5,5.8,93.2,9.2z"
       fill="inherit"
       id="path273" />
    <path
       d="M93.1,858.8c-4.2-2.8-8.2-5.8-12.1-9.1c-0.9-0.8-1.8-0.8-2.5-0.2c-4.1,3.3-7,7.9-10.9,11.4 c-0.6,0.5-0.1,2.1,0.7,2.5c0.4,0.2,0.8,0.4,1.3,0.6H95c-0.1-0.9-0.2-1.7-0.3-2.6C94.6,860.3,94,859.4,93.1,858.8z"
       fill="inherit"
       id="path275" />
    <path
       d="M454.5,479.7c-4.6,0.9-8.4,3.3-11.1,7.3c-0.5,0.7-0.4,1.8,0.3,2.4c2.2,1.8,4.7,3.1,7.3,4.1 c4.5,1.8,4.9,1.7,9.3-0.8c0.3-0.2,0.6-0.3,0.9-0.6c0.7-0.6,1.2-1.3,1.3-2.2c0.1-0.7,0.1-1.4,0.2-2.7c0.4-1.7-0.6-3.5-2-5.2 C459,480,456.9,479.3,454.5,479.7z"
       fill="inherit"
       id="path277" />
    <path
       d="M523.6,534.4c1.4,0.1,2.8,0.2,4.2,0.2c1.8,0,3.5-0.1,5.2-0.2c1.5,0.1,2.9,0.2,4.3,0.3 c1.6,0.1,3.1,0.1,4.7,0.1c1.2,0,1.8-0.8,1.6-2.1c-0.1-0.7-0.4-1.4-0.5-2.1c-0.3-1.8-1.3-2.8-3.1-3.1c-1-0.2-2.1-0.4-3.1-0.4 c-2.5,0-4.9-0.1-7.4,0.1c-2.5,0.2-4.8,0.7-7.1,1.7c-1.3,0.5-1.9,1.6-1.6,2.9C521.2,533.5,521.9,534.2,523.6,534.4z"
       fill="inherit"
       id="path279" />
    <path
       d="M811.4,756.3c0-0.2-0.1-0.4-0.1-0.6c-0.3-1-0.8-1.7-1.6-1.8c-1.1-0.2-2.3-0.4-3.4-0.3 c-2.3,0.3-4.5,0.6-6.7,1.6c-0.7,0.3-1.3,0.5-2,0.8c-0.2,0.1-0.4,0.6-0.3,0.8c1,2.2,1.5,4.6,2.1,6.9c0.2,0.9,0.6,1.8,0.9,2.7 c0.3,0.7,0.7,1.2,1.3,1.4c1.2,0.5,2.3,0.9,3.5,1.1c2.2,0.4,4.3,0.8,6.5,1.2c0.2,0,0.3,0,0.6-0.1c0.1-0.3,0.3-0.5,0.3-0.8 c0-1,0.1-1.9,0-2.9C812.3,762.9,811.9,759.6,811.4,756.3z"
       fill="inherit"
       id="path281" />
    <path
       d="M838.6,668.1c-0.3-1.8-1.3-2.8-3.1-3.1c-1-0.2-2.1-0.4-3.1-0.4c-2.5,0-4.9-0.1-7.4,0.1 c-2.5,0.2-4.8,0.7-7.1,1.7c-1.3,0.5-1.9,1.6-1.6,2.9c0.4,1.8,1.1,2.5,2.8,2.7c1.4,0.1,2.8,0.2,4.2,0.2c1.8,0,3.5-0.1,5.2-0.2 c1.5,0.1,2.9,0.2,4.3,0.3c1.6,0.1,3.1,0.1,4.7,0.1c1.2,0,1.8-0.8,1.6-2.1C839,669.5,838.7,668.8,838.6,668.1z"
       fill="inherit"
       id="path283" />
    <path
       d="M306.1,526.3c0.8-1.8,0.1-3.6-1.1-4.8c-5.8-5.7-12.6-9.1-22.4-8.9c-1.1,0.3-3.6,0.8-6.1,1.6 c-0.5,0.2-1,1.5-0.9,2.2c0.4,2.2,1.9,3.9,3.9,4.9c7.8,4.1,16.4,5.3,24.9,6.7C304.9,528.1,305.8,527,306.1,526.3z"
       fill="inherit"
       id="path285" />
    <path
       d="M88.5,559.6c0.7-0.3,1.3-0.5,2-0.8c0.2-0.1,0.4-0.6,0.3-0.8c-1-2.2-1.5-4.6-2.1-6.9 c-0.2-0.9-0.6-1.8-0.9-2.7c-0.3-0.7-0.7-1.2-1.3-1.4c-1.2-0.5-2.3-0.9-3.5-1.1c-2.2-0.4-4.3-0.8-6.5-1.2c-0.2,0-0.3,0-0.6,0.1 c-0.1,0.3-0.3,0.5-0.3,0.8c0,1-0.1,1.9,0,2.9c0.2,3.3,0.7,6.6,1.2,9.9c0,0.2,0.1,0.4,0.1,0.6c0.3,1,0.8,1.7,1.6,1.8 c1.1,0.2,2.3,0.4,3.4,0.3C84.1,560.9,86.3,560.5,88.5,559.6z"
       fill="inherit"
       id="path287" />
    <path
       d="M263.4,409.3c-0.8-0.7-1.8-1.1-2.9-0.9c-5,0.6-10,0.9-15.1,0.8c-1.2,0-1.9,0.6-2,1.5 c-1.1,5.2-0.3,10.6-1,15.8c-0.1,0.8,1.3,1.7,2.2,1.5c1.6-0.4,3.1-0.8,4.6-1.3c6.9-2.4,13.4-5.5,20.8-7.2c0.3-0.1,0.5-0.5,0.7-0.8 c-0.9-1.4-1.7-2.7-2.6-4.1C266.8,412.5,265.1,410.9,263.4,409.3z"
       fill="inherit"
       id="path289" />
    <path
       d="M351.9,553c0.5-0.7,0.4-1.8-0.3-2.4c-2.2-1.8-4.7-3.1-7.3-4.1c-4.5-1.8-4.9-1.7-9.3,0.8 c-0.3,0.2-0.6,0.3-0.9,0.6c-0.7,0.6-1.2,1.3-1.3,2.2c-0.1,0.7-0.1,1.4-0.2,2.7c-0.4,1.7,0.6,3.5,2,5.2c1.6,2,3.7,2.7,6.1,2.2 C345.4,559.4,349.2,557,351.9,553z"
       fill="inherit"
       id="path291" />
    <path
       d="M211.1,545c0.3,1.8,1.3,2.8,3.1,3.1c1,0.2,2.1,0.4,3.1,0.4c2.5,0,4.9,0.1,7.4-0.1c2.5-0.2,4.8-0.7,7.1-1.7 c1.3-0.5,1.9-1.6,1.6-2.9c-0.4-1.8-1.1-2.5-2.8-2.7c-1.4-0.1-2.8-0.2-4.2-0.2c-1.8,0-3.5,0.1-5.2,0.2c-1.5-0.1-2.9-0.2-4.3-0.3 c-1.6-0.1-3.1-0.1-4.7-0.1c-1.2,0-1.8,0.8-1.6,2.1C210.8,543.6,211,544.3,211.1,545z"
       fill="inherit"
       id="path293" />
    <path
       d="M803,461.3c0.3-0.7,0-1.4-0.4-1.9c-2.3-2.3-5-3.6-8.9-3.5c-0.4,0.1-1.5,0.3-2.4,0.6 c-0.2,0.1-0.4,0.6-0.3,0.9c0.2,0.9,0.8,1.5,1.6,2c3.1,1.6,6.5,2.1,9.9,2.7C802.5,462.1,802.8,461.6,803,461.3z"
       fill="inherit"
       id="path295" />
    <path
       d="M787,333.5c-4.7-2.4-10.1-3.1-14.9-5.2c-0.7-0.3-2,0.8-2,1.7c0,1.6,0,3.2,0.1,4.8c0.5,7.3,1.7,14.4,1.4,22 c0,0.3,0.3,0.6,0.6,0.9c1.5-0.5,3.1-1,4.7-1.4c2.1-0.6,4.1-1.8,6.1-3.1c0.9-0.6,1.5-1.5,1.7-2.5c0.8-5,1.9-9.9,3.2-14.8 C788.2,334.8,787.8,334,787,333.5z"
       fill="inherit"
       id="path297" />
    <path
       d="M750.1,466.2c-1.4-0.1-2.8-0.2-4.2-0.2c-1.8,0-3.5,0.1-5.2,0.2c-1.5-0.1-2.9-0.2-4.3-0.3 c-1.6-0.1-3.1-0.1-4.7-0.1c-1.2,0-1.8,0.8-1.6,2.1c0.1,0.7,0.4,1.4,0.5,2.1c0.3,1.8,1.3,2.8,3.1,3.1c1,0.2,2.1,0.4,3.1,0.4 c2.5,0,4.9,0.1,7.4-0.1c2.5-0.2,4.8-0.7,7.1-1.7c1.3-0.5,1.9-1.6,1.6-2.9C752.5,467.1,751.8,466.4,750.1,466.2z"
       fill="inherit"
       id="path299" />
    <path
       d="M446.2,563.9c-3.1-1.6-6.5-2.1-9.9-2.7c-0.2,0-0.5,0.4-0.6,0.7c-0.3,0.7,0,1.4,0.4,1.9 c2.3,2.3,5,3.6,8.9,3.5c0.4-0.1,1.5-0.3,2.4-0.6c0.2-0.1,0.4-0.6,0.3-0.9C447.6,565,447,564.3,446.2,563.9z"
       fill="inherit"
       id="path301" />
    <path
       d="M858.6,202.4c0.2,0,0.3,0,0.6-0.1c0.1-0.3,0.3-0.5,0.3-0.8c0-1,0.1-1.9,0-2.9c-0.2-3.3-0.7-6.6-1.2-9.9 c0-0.2-0.1-0.4-0.1-0.6c-0.3-1-0.8-1.7-1.6-1.8c-1.1-0.2-2.3-0.4-3.4-0.3c-2.3,0.3-4.5,0.6-6.7,1.6c-0.7,0.3-1.3,0.5-2,0.8 c-0.2,0.1-0.4,0.6-0.3,0.8c1,2.2,1.5,4.6,2.1,6.9c0.2,0.9,0.6,1.8,0.9,2.7c0.3,0.7,0.7,1.2,1.3,1.4c1.2,0.5,2.3,0.9,3.5,1.1 C854.3,201.6,856.4,202,858.6,202.4z"
       fill="inherit"
       id="path303" />
    <path
       d="M782,99.8c4.5,1.8,4.9,1.7,9.3-0.8c0.3-0.2,0.6-0.3,0.9-0.6c0.7-0.6,1.2-1.3,1.3-2.2 c0.1-0.7,0.1-1.4,0.2-2.7c0.4-1.7-0.6-3.5-2-5.2c-1.6-2-3.7-2.7-6.1-2.2c-4.6,0.9-8.4,3.3-11.1,7.3c-0.5,0.7-0.4,1.8,0.3,2.4 C776.9,97.5,779.4,98.8,782,99.8z"
       fill="inherit"
       id="path305" />
    <path
       d="M235.5,8.2c6.8,2.7,7.4,2.5,14-1.3c0.5-0.3,0.9-0.5,1.3-0.8c1.1-0.9,1.8-1.9,1.9-3.3 c0.1-0.8,0.1-1.6,0.2-2.8h-29.3c0,0.8,0.3,1.5,0.9,2C227.8,4.8,231.6,6.7,235.5,8.2z"
       fill="inherit"
       id="path307" />
    <path
       d="M250.1,854.9c-2.4-3-5.5-4.1-9.2-3.3c-7,1.4-12.7,4.9-16.8,10.9c-0.3,0.5-0.5,1-0.4,1.5h29.3 c0-0.4,0-0.8,0.1-1.2C253.6,860.2,252.1,857.4,250.1,854.9z"
       fill="inherit"
       id="path309" />
    <path
       d="M856.8,37.4c-2.5,0.2-4.8,0.7-7.1,1.7c-1.3,0.5-1.9,1.6-1.6,2.9c0.4,1.8,1.1,2.5,2.8,2.7 c1.4,0.1,2.8,0.2,4.2,0.2c1.8,0,3.5-0.1,5.2-0.2c1.3,0.1,2.5,0.2,3.8,0.2v-7.6C861.6,37.2,859.2,37.2,856.8,37.4z"
       fill="inherit"
       id="path311" />
    <path
       d="M5.2,45c1.2,0,1.8-0.8,1.6-2.1c-0.1-0.7-0.4-1.4-0.5-2.1C6.1,39,5,38,3.3,37.7c-1-0.2-2.1-0.4-3.1-0.4 c0,0-0.1,0-0.1,0v7.6c0.2,0,0.3,0,0.5,0C2.1,44.9,3.7,45,5.2,45z"
       fill="inherit"
       id="path313" />
    <path
       d="M776.1,173.7c0.4-0.1,1.5-0.3,2.4-0.6c0.2-0.1,0.4-0.6,0.3-0.9c-0.2-0.9-0.8-1.5-1.6-2 c-3.1-1.6-6.5-2.1-9.9-2.7c-0.2,0-0.5,0.4-0.6,0.7c-0.3,0.7,0,1.4,0.4,1.9C769.5,172.5,772.2,173.8,776.1,173.7z"
       fill="inherit"
       id="path315" />
    <path
       d="M719.7,410.4c-0.7-1.5-1.4-2.9-2.1-4.3c-3.6-6.4-7.8-12.2-10.8-19.2c-0.1-0.3-0.6-0.4-0.9-0.6 c-1.2,1.1-2.4,2.2-3.6,3.3c-1.6,1.5-2.9,3.4-4.2,5.4c-0.6,0.9-0.7,2-0.4,3c1.5,4.8,2.6,9.7,3.5,14.8c0.2,1.2,0.9,1.7,1.8,1.8 c5.3,0.1,10.4-1.6,15.7-1.8C719.4,412.8,720.1,411.2,719.7,410.4z"
       fill="inherit"
       id="path317" />
    <path
       d="M113.1,480.4c-0.3-1.8-1.3-2.8-3.1-3.1c-1-0.2-2.1-0.4-3.1-0.4c-2.5,0-4.9-0.1-7.4,0.1 c-2.5,0.2-4.8,0.7-7.1,1.7c-1.3,0.5-1.9,1.6-1.6,2.9c0.4,1.8,1.1,2.5,2.8,2.7c1.4,0.1,2.8,0.2,4.2,0.2c1.8,0,3.5-0.1,5.2-0.2 c1.5,0.1,2.9,0.2,4.3,0.3c1.6,0.1,3.1,0.1,4.7,0.1c1.2,0,1.8-0.8,1.6-2.1C113.4,481.8,113.2,481.1,113.1,480.4z"
       fill="inherit"
       id="path319" />
    <path
       d="M629.1,400.4c-0.4,0.1-1.5,0.3-2.4,0.6c-0.2,0.1-0.4,0.6-0.3,0.9c0.2,0.9,0.8,1.5,1.6,2 c3.1,1.6,6.5,2.1,9.9,2.7c0.2,0,0.5-0.4,0.6-0.7c0.3-0.7,0-1.4-0.4-1.9C635.8,401.7,633,400.3,629.1,400.4z"
       fill="inherit"
       id="path321" />
    <path
       d="M623.2,474.4c-4.5-1.8-4.9-1.7-9.3,0.8c-0.3,0.2-0.6,0.3-0.9,0.6c-0.7,0.6-1.2,1.3-1.3,2.2 c-0.1,0.7-0.1,1.4-0.2,2.7c-0.4,1.7,0.6,3.5,2,5.2c1.6,2,3.7,2.7,6.1,2.2c4.6-0.9,8.4-3.3,11.1-7.3c0.5-0.7,0.4-1.8-0.3-2.4 C628.3,476.6,625.8,475.4,623.2,474.4z"
       fill="inherit"
       id="path323" />
    <path
       d="M575.8,435.7c-2.2-0.2-4.5-0.3-6.8-0.2c-2.8,0-5.6,0.2-8.3,0.3c-2.4-0.2-4.6-0.3-6.9-0.4 c-2.5-0.1-5.1-0.2-7.6-0.2c-2,0-2.9,1.4-2.5,3.4c0.2,1.1,0.6,2.2,0.7,3.3c0.5,2.9,2.2,4.5,4.9,5.1c1.7,0.3,3.3,0.7,5,0.7 c4,0.1,7.9,0.1,11.9-0.2c4-0.3,7.8-1.2,11.5-2.7c2.1-0.9,3-2.6,2.5-4.7C579.6,437.1,578.5,436,575.8,435.7z"
       fill="inherit"
       id="path325" />
    <path
       d="M16.9,156.8c0.3-0.7,0-1.4-0.4-1.9c-2.3-2.3-5-3.6-8.9-3.5c-0.4,0.1-1.5,0.3-2.4,0.6 c-0.2,0.1-0.4,0.6-0.3,0.9c0.2,0.9,0.8,1.5,1.6,2c3.1,1.6,6.5,2.1,9.9,2.7C16.4,157.5,16.7,157,16.9,156.8z"
       fill="inherit"
       id="path327" />
    <path
       d="M72.8,788.7c-0.2-0.9-0.6-1.8-0.9-2.7c-0.3-0.7-0.7-1.2-1.3-1.4c-1.2-0.5-2.3-0.9-3.5-1.1 c-2.2-0.4-4.3-0.8-6.5-1.2c-0.2,0-0.3,0-0.6,0.1c-0.1,0.3-0.3,0.5-0.3,0.8c0,1-0.1,1.9,0,2.9c0.2,3.3,0.7,6.6,1.2,9.9 c0,0.2,0.1,0.4,0.1,0.6c0.3,1,0.8,1.7,1.6,1.8c1.1,0.2,2.3,0.4,3.4,0.3c2.3-0.3,4.5-0.6,6.7-1.6c0.7-0.3,1.3-0.5,2-0.8 c0.2-0.1,0.4-0.6,0.3-0.8C73.9,793.5,73.4,791.1,72.8,788.7z"
       fill="inherit"
       id="path329" />
    <path
       d="M12.4,725.3c0.7-0.1,1.5-0.9,1.6-1.7c0.5-4.4,0.5-8.7-0.1-13c-0.4-2.5-1.5-4.8-2.8-6.9 c-0.8-1.3-2-2.2-3.6-2.3c-1.6-0.2-3.2-0.3-5.1-0.4c-0.8,0-1.6,0-2.3,0v24.1c1,0.5,2,0.8,3.1,0.9C6.2,726,9.3,725.8,12.4,725.3z"
       fill="inherit"
       id="path331" />
    <path
       d="M850.2,703.4c-0.3,0.1-0.6,0.9-0.4,1.3c1,1.7,2.1,3.4,3.2,5.1c1.9,3.1,3.7,6.3,5.5,9.5 c1.1,1.9,2.5,3.5,4.2,4.9c0.4,0.4,0.9,0.6,1.4,0.9V701c-4.5,0.2-9,1.1-13.4,2.3C850.4,703.3,850.3,703.4,850.2,703.4z"
       fill="inherit"
       id="path333" />
    <path
       d="M310,814.8c-0.2-1.2-0.9-1.7-1.8-1.8c-5.3-0.1-10.4,1.6-15.7,1.8c-0.8,0-1.5,1.6-1.1,2.4 c0.7,1.5,1.4,2.9,2.1,4.3c3.6,6.4,7.8,12.2,10.8,19.2c0.1,0.3,0.6,0.4,0.9,0.6c1.2-1.1,2.4-2.2,3.6-3.3c1.6-1.5,2.9-3.4,4.2-5.4 c0.6-0.9,0.7-2,0.4-3C312.1,824.8,310.9,819.8,310,814.8z"
       fill="inherit"
       id="path335" />
    <path
       d="M196.7,842.5c-4.5-1.8-4.9-1.7-9.3,0.8c-0.3,0.2-0.6,0.3-0.9,0.6c-0.7,0.6-1.2,1.3-1.3,2.2 c-0.1,0.7-0.1,1.4-0.2,2.7c-0.4,1.7,0.6,3.5,2,5.2c1.6,2,3.7,2.7,6.1,2.2c4.6-0.9,8.4-3.3,11.1-7.3c0.5-0.7,0.4-1.8-0.3-2.4 C201.8,844.7,199.3,843.5,196.7,842.5z"
       fill="inherit"
       id="path337" />
    <path
       d="M251.6,790.9c-2.4-0.2-4.7-0.3-7.1-0.3c-3,0-6,0.2-8.8,0.4c-2.5-0.2-4.9-0.4-7.3-0.5 c-2.7-0.1-5.4-0.2-8-0.2c-2.1,0-3.1,1.4-2.7,3.6c0.2,1.2,0.6,2.3,0.8,3.5c0.5,3,2.3,4.8,5.2,5.3c1.8,0.3,3.5,0.7,5.3,0.7 c4.2,0.1,8.4,0.1,12.5-0.2c4.2-0.3,8.2-1.3,12.1-2.9c2.2-0.9,3.2-2.7,2.6-5C255.6,792.4,254.5,791.2,251.6,790.9z"
       fill="inherit"
       id="path339" />
    <path
       d="M430.4,801.6c-3.1-1.6-6.5-2.1-9.9-2.7c-0.2,0-0.5,0.4-0.6,0.7c-0.3,0.7,0,1.4,0.4,1.9 c2.3,2.3,5,3.6,8.9,3.5c0.4-0.1,1.5-0.3,2.4-0.6c0.2-0.1,0.4-0.6,0.3-0.9C431.8,802.6,431.2,802,430.4,801.6z"
       fill="inherit"
       id="path341" />
    <path
       d="M849.2,863.4c-1-1.7-2.1-3.4-3.2-5.1c-1.9-3.1-3.7-6.3-5.5-9.5c-1.1-1.9-2.5-3.5-4.2-4.9 c-1.3-1.1-2.8-1.7-4.5-1.7c-3.1-0.1-6.2,0.1-9.2,0.6c-0.7,0.1-1.5,0.9-1.6,1.7c-0.5,4.4-0.5,8.7,0.1,13c0.3,2.3,1.4,4.4,2.5,6.4 h25.6C849.3,863.8,849.3,863.6,849.2,863.4z"
       fill="inherit"
       id="path343" />
    <path
       d="M543,833.7c-4.6,0.9-8.4,3.3-11.1,7.3c-0.5,0.7-0.4,1.8,0.3,2.4c2.2,1.8,4.7,3.1,7.3,4.1 c4.5,1.8,4.9,1.7,9.3-0.8c0.3-0.2,0.6-0.3,0.9-0.6c0.7-0.6,1.2-1.3,1.3-2.2c0.1-0.7,0.1-1.4,0.2-2.7c0.4-1.7-0.6-3.5-2-5.2 C547.5,834,545.4,833.3,543,833.7z"
       fill="inherit"
       id="path345" />
    <path
       d="M523.6,191.4c1.4,0.1,2.8,0.2,4.2,0.2c1.8,0,3.5-0.1,5.2-0.2c1.5,0.1,2.9,0.2,4.3,0.3 c1.6,0.1,3.1,0.1,4.7,0.1c1.2,0,1.8-0.8,1.6-2.1c-0.1-0.7-0.4-1.4-0.5-2.1c-0.3-1.8-1.3-2.8-3.1-3.1c-1-0.2-2.1-0.4-3.1-0.4 c-2.5,0-4.9-0.1-7.4,0.1c-2.5,0.2-4.8,0.7-7.1,1.7c-1.3,0.5-1.9,1.6-1.6,2.9C521.2,190.5,521.9,191.2,523.6,191.4z"
       fill="inherit"
       id="path347" />
  </g>
  <xhtml:iframe
     class="cleanslate hidden"
     src="background_files/commandline.html"
     id="cmdline_iframe"
     loading="lazy"
     style="height: 0px !important;" />
</svg>
