<?xml version="1.0" standalone="no"?>
<!DOCTYPE svg PUBLIC "-//W3C//DTD SVG 20010904//EN"
 "http://www.w3.org/TR/2001/REC-SVG-20010904/DTD/svg10.dtd">
<svg version="1.0" xmlns="http://www.w3.org/2000/svg"
 width="335.000000pt" height="335.000000pt" viewBox="0 0 335.000000 335.000000"
 preserveAspectRatio="xMidYMid meet">
<metadata>
Created by potrace 1.14, written by Peter Selinger 2001-2017
</metadata>
<g transform="translate(0.000000,335.000000) scale(0.100000,-0.100000)"
fill="#000000" stroke="none">
<path d="M1852 3242 c-32 -5 -56 -45 -47 -79 8 -33 48 -89 74 -102 58 -31 115
-7 113 48 -1 27 2 30 18 21 28 -15 79 -84 94 -127 13 -38 14 -157 2 -221 -7
-37 -35 -113 -47 -126 -4 -4 -31 3 -61 18 -128 63 -274 82 -384 52 -50 -13
-154 -72 -184 -105 -27 -27 -96 -133 -124 -188 -33 -67 -73 -223 -72 -285 1
-26 0 -48 -1 -48 -1 0 -7 9 -13 21 -8 15 -8 24 0 34 8 10 4 18 -16 34 -48 38
-57 59 -59 142 -2 69 -5 81 -26 98 -13 11 -37 22 -53 25 -16 3 -27 8 -25 10 2
3 25 0 51 -6 41 -10 51 -8 94 13 87 44 110 150 64 296 -37 117 -108 171 -208
159 -97 -12 -137 -74 -137 -212 1 -51 5 -98 11 -105 6 -8 14 -22 17 -32 6 -16
4 -16 -23 -2 -27 14 -32 14 -54 0 -25 -16 -56 -80 -56 -114 0 -10 -9 -26 -21
-37 -30 -27 -47 -64 -45 -101 1 -28 -1 -30 -15 -17 -21 19 -29 8 -29 -41 0
-35 -6 -46 -36 -74 -42 -37 -40 -46 22 -116 26 -29 34 -48 34 -76 0 -45 21
-69 59 -69 36 0 43 8 81 105 17 44 35 84 40 89 11 11 35 -46 45 -102 4 -23 15
-52 25 -64 l18 -23 -42 1 c-48 0 -125 -17 -177 -39 -94 -41 -152 -125 -153
-221 0 -52 6 -72 38 -134 74 -139 248 -269 400 -297 62 -12 197 -12 243 0 20
5 23 2 24 -27 0 -18 2 -42 4 -53 4 -28 15 -108 16 -117 0 -4 4 -21 9 -38 8
-29 8 -30 -18 -25 -75 16 -292 27 -292 14 0 -7 29 -19 109 -44 70 -21 181 -77
204 -102 12 -14 16 -31 13 -54 -6 -44 -19 -133 -21 -139 0 -3 -5 -27 -9 -55
-4 -27 -19 -99 -33 -160 -13 -60 -26 -117 -28 -126 -2 -10 -11 -39 -21 -66
-25 -71 -14 -118 30 -133 39 -13 164 -16 216 -6 81 16 97 41 59 90 l-22 27 27
47 c41 70 106 208 136 287 16 40 34 71 43 73 9 2 33 -14 54 -35 54 -54 115
-222 128 -348 3 -27 9 -53 13 -57 4 -4 30 -9 57 -12 28 -3 68 -8 91 -11 107
-16 157 -7 196 35 17 18 16 20 -11 42 -15 13 -38 30 -51 38 -33 22 -48 64 -40
115 4 24 5 64 4 89 l-3 46 32 -24 c75 -56 226 -116 292 -116 61 0 67 14 51
110 -8 47 -17 102 -21 124 -3 21 -7 42 -10 46 -5 9 20 31 56 49 14 7 34 29 44
49 11 20 32 57 47 81 29 46 35 85 19 110 -12 19 5 52 23 45 8 -3 17 -1 20 5 8
12 -130 95 -159 95 -14 1 -19 -4 -17 -18 6 -35 -5 -48 -30 -35 -31 17 -86 12
-126 -11 -31 -19 -34 -19 -67 -2 -42 21 -43 27 -6 46 78 41 141 155 147 265 6
111 -72 234 -157 247 -43 7 -48 21 -23 59 11 17 16 44 14 87 -4 131 -2 146 47
255 42 96 47 116 47 178 0 60 -5 80 -38 145 -36 72 -79 138 -100 152 -18 12
63 140 124 196 59 53 128 68 185 41 38 -19 41 -33 10 -49 -19 -10 -25 -21 -25
-46 0 -74 60 -131 126 -121 45 8 64 28 64 71 0 42 -39 85 -120 133 -104 62
-187 52 -273 -32 -42 -42 -101 -121 -110 -148 -2 -7 -20 3 -43 23 -21 20 -56
46 -76 58 l-37 23 24 65 c13 35 23 64 21 64 -2 0 0 17 5 38 5 20 9 71 10 113
0 63 -4 85 -24 126 -28 55 -97 123 -125 123 -10 0 -28 13 -40 30 -27 35 -68
57 -100 52z m-739 -449 c15 -18 44 -98 51 -143 4 -28 -17 -76 -36 -83 -42 -15
-108 75 -108 148 0 75 54 121 93 78z m1549 -1779 c-14 -18 -25 -22 -56 -20
-49 4 -62 25 -39 64 l17 30 47 -26 c47 -25 47 -25 31 -48z m-528 -193 c14 -6
26 -19 28 -33 3 -22 5 -23 96 -19 58 2 92 0 92 -7 0 -5 -45 -24 -101 -42 -105
-34 -118 -33 -119 11 0 9 -7 33 -15 52 -22 53 -22 53 19 38z m301 -60 c8 -16
23 -32 34 -36 13 -4 20 -17 23 -45 l3 -38 -46 34 c-26 19 -61 40 -79 48 l-33
14 36 17 c21 9 37 21 37 26 0 17 9 9 25 -20z m-90 -69 c0 -14 -77 -70 -108
-77 -29 -8 -44 10 -27 30 15 18 111 65 125 61 6 -1 10 -8 10 -14z"/>
</g>
</svg>
